<svg xmlns="http://www.w3.org/2000/svg" width="34.094" height="45.458" viewBox="0 0 34.094 45.458">
  <g id="Groupe_38" data-name="Groupe 38" transform="translate(-1720.527 -176.104)">
    <path id="droplet-solid" d="M17.047,45.458A17.051,17.051,0,0,1,0,28.411c0-8.1,11.56-23.289,14.792-27.373A2.761,2.761,0,0,1,16.967,0h.16A2.761,2.761,0,0,1,19.3,1.039c3.232,4.084,14.792,19.275,14.792,27.373A17.051,17.051,0,0,1,17.047,45.458ZM8.523,29.832a1.421,1.421,0,1,0-2.841,0,9.939,9.939,0,0,0,9.944,9.944,1.421,1.421,0,1,0,0-2.841A7.1,7.1,0,0,1,8.523,29.832Z" transform="translate(1720.527 176.104)" fill="#8a0d1e"/>
    <path id="droplet-solid-2" data-name="droplet-solid" d="M12.862,34.3A12.866,12.866,0,0,1,0,21.437C0,15.327,8.722,3.865,11.161.784A2.083,2.083,0,0,1,12.8,0h.121a2.083,2.083,0,0,1,1.641.784C17,3.865,25.724,15.327,25.724,21.437A12.866,12.866,0,0,1,12.862,34.3ZM6.431,22.509a1.072,1.072,0,0,0-2.144,0,7.5,7.5,0,0,0,7.5,7.5,1.072,1.072,0,0,0,0-2.144A5.358,5.358,0,0,1,6.431,22.509Z" transform="translate(1725.163 182.515)" fill="#de2e4b"/>
  </g>
</svg>
