<svg xmlns="http://www.w3.org/2000/svg" width="75" height="75" viewBox="0 0 75 75">
  <g id="Groupe_44" data-name="Groupe 44" transform="translate(-897 -1811)">
    <circle id="Ellipse_28" data-name="Ellipse 28" cx="37.5" cy="37.5" r="37.5" transform="translate(897 1811)" fill="#de2e4b"/>
    <path id="eye-solid_1_" data-name="eye-solid (1)" d="M28.517,32c-7.994,0-14.4,3.641-19.056,7.975A39.2,39.2,0,0,0,.27,52.946a3.146,3.146,0,0,0,0,2.434A39.2,39.2,0,0,0,9.461,68.35c4.66,4.334,11.061,7.975,19.056,7.975s14.4-3.641,19.056-7.975a39.5,39.5,0,0,0,9.2-12.971,3.146,3.146,0,0,0,0-2.434,39.4,39.4,0,0,0-9.2-12.971C42.913,35.641,36.512,32,28.517,32ZM14.27,54.163A14.247,14.247,0,1,1,28.517,68.41,14.247,14.247,0,0,1,14.27,54.163ZM28.517,47.83a6.338,6.338,0,0,1-6.332,6.332,6.423,6.423,0,0,1-2.008-.326.842.842,0,0,0-1.158.732,9.179,9.179,0,0,0,.317,2.048,9.5,9.5,0,1,0,9.587-11.952.84.84,0,0,0-.732,1.158,6.424,6.424,0,0,1,.326,2.008Z" transform="translate(905.898 1794.257)" fill="#fff"/>
  </g>
</svg>
