<svg xmlns="http://www.w3.org/2000/svg" width="787.15" height="307.966" viewBox="0 0 787.15 307.966">
  <g id="Groupe_61" data-name="Groupe 61" transform="translate(-522.297 -1237.01)">
    <g id="Groupe_63" data-name="Groupe 63" transform="translate(1160.56 1325.777) rotate(30)">
      <ellipse id="Ellipse_10" data-name="Ellipse 10" cx="7.055" cy="33.933" rx="7.055" ry="33.933" transform="translate(32.925)" fill="#ffadbf"/>
      <ellipse id="Ellipse_11" data-name="Ellipse 11" cx="7.055" cy="33.933" rx="7.055" ry="33.933" transform="translate(32.925 12.767)" fill="#ffadbf"/>
      <ellipse id="Ellipse_12" data-name="Ellipse 12" cx="6.719" cy="34.269" rx="6.719" ry="34.269" transform="translate(11.423 47.036) rotate(-90)" fill="#ffadbf"/>
      <ellipse id="Ellipse_13" data-name="Ellipse 13" cx="6.719" cy="33.933" rx="6.719" ry="33.933" transform="translate(0 47.036) rotate(-90)" fill="#ffadbf"/>
      <ellipse id="Ellipse_14" data-name="Ellipse 14" cx="6.862" cy="33.969" rx="6.862" ry="33.969" transform="translate(14.997 24.575) rotate(-45)" fill="#ffadbf"/>
      <ellipse id="Ellipse_16" data-name="Ellipse 16" cx="6.862" cy="33.969" rx="6.862" ry="33.969" transform="translate(7.513 17.94) rotate(-45)" fill="#ffadbf"/>
      <ellipse id="Ellipse_17" data-name="Ellipse 17" cx="6.862" cy="33.969" rx="6.862" ry="33.969" transform="translate(24.702 65.979) rotate(-135)" fill="#ffadbf"/>
      <ellipse id="Ellipse_18" data-name="Ellipse 18" cx="6.862" cy="33.969" rx="6.862" ry="33.969" transform="translate(17.218 72.614) rotate(-135)" fill="#ffadbf"/>
      <circle id="Ellipse_15" data-name="Ellipse 15" cx="7.727" cy="7.727" r="7.727" transform="translate(32.253 32.925)" fill="#de2e4b"/>
    </g>
    <g id="Groupe_26" data-name="Groupe 26" transform="translate(700.353 1505.865) rotate(-17)">
      <circle id="Ellipse_3" data-name="Ellipse 3" cx="10.01" cy="10.01" r="10.01" transform="translate(4.004 5.72)" fill="#fff"/>
      <circle id="Ellipse_2" data-name="Ellipse 2" cx="5.434" cy="5.434" r="5.434" transform="translate(18.018 4.004)" fill="#fff"/>
      <circle id="Ellipse_4" data-name="Ellipse 4" cx="5.434" cy="5.434" r="5.434" transform="translate(19.162 12.87)" fill="#fff"/>
      <circle id="Ellipse_5" data-name="Ellipse 5" cx="5.434" cy="5.434" r="5.434" transform="translate(13.728 18.876)" fill="#fff"/>
      <circle id="Ellipse_6" data-name="Ellipse 6" cx="5.434" cy="5.434" r="5.434" transform="translate(5.148 18.59)" fill="#fff"/>
      <circle id="Ellipse_7" data-name="Ellipse 7" cx="5.434" cy="5.434" r="5.434" transform="translate(0 11.726)" fill="#fff"/>
      <circle id="Ellipse_8" data-name="Ellipse 8" cx="5.434" cy="5.434" r="5.434" transform="translate(2.574 3.718)" fill="#fff"/>
      <circle id="Ellipse_9" data-name="Ellipse 9" cx="5.434" cy="5.434" r="5.434" transform="translate(9.724)" fill="#fff"/>
      <circle id="Ellipse_1" data-name="Ellipse 1" cx="6.578" cy="6.578" r="6.578" transform="translate(8.58 9.152)" fill="#ffce0a"/>
    </g>
    <g id="Groupe_25" data-name="Groupe 25" transform="translate(1129.148 1344.339) rotate(-17)">
      <circle id="Ellipse_3-2" data-name="Ellipse 3" cx="10.01" cy="10.01" r="10.01" transform="translate(4.004 5.72)" fill="#ceeff4"/>
      <circle id="Ellipse_2-2" data-name="Ellipse 2" cx="5.434" cy="5.434" r="5.434" transform="translate(18.018 4.004)" fill="#ceeff4"/>
      <circle id="Ellipse_4-2" data-name="Ellipse 4" cx="5.434" cy="5.434" r="5.434" transform="translate(19.162 12.87)" fill="#ceeff4"/>
      <circle id="Ellipse_5-2" data-name="Ellipse 5" cx="5.434" cy="5.434" r="5.434" transform="translate(13.728 18.876)" fill="#ceeff4"/>
      <circle id="Ellipse_6-2" data-name="Ellipse 6" cx="5.434" cy="5.434" r="5.434" transform="translate(5.148 18.59)" fill="#ceeff4"/>
      <circle id="Ellipse_7-2" data-name="Ellipse 7" cx="5.434" cy="5.434" r="5.434" transform="translate(0 11.726)" fill="#ceeff4"/>
      <circle id="Ellipse_8-2" data-name="Ellipse 8" cx="5.434" cy="5.434" r="5.434" transform="translate(2.574 3.718)" fill="#ceeff4"/>
      <circle id="Ellipse_9-2" data-name="Ellipse 9" cx="5.434" cy="5.434" r="5.434" transform="translate(9.724)" fill="#ceeff4"/>
      <circle id="Ellipse_1-2" data-name="Ellipse 1" cx="6.578" cy="6.578" r="6.578" transform="translate(8.58 9.152)" fill="#ffadbf"/>
    </g>
    <g id="Groupe_16" data-name="Groupe 16" transform="translate(1021.865 1358.752)">
      <circle id="Ellipse_3-3" data-name="Ellipse 3" cx="48.232" cy="48.232" r="48.232" transform="translate(19.293 27.561)" fill="#f36d8f"/>
      <circle id="Ellipse_2-3" data-name="Ellipse 2" cx="26.183" cy="26.183" r="26.183" transform="translate(86.818 19.293)" fill="#f36d8f"/>
      <circle id="Ellipse_4-3" data-name="Ellipse 4" cx="26.183" cy="26.183" r="26.183" transform="translate(92.331 62.013)" fill="#f36d8f"/>
      <circle id="Ellipse_5-3" data-name="Ellipse 5" cx="26.183" cy="26.183" r="26.183" transform="translate(66.147 90.953)" fill="#f36d8f"/>
      <circle id="Ellipse_6-3" data-name="Ellipse 6" cx="26.183" cy="26.183" r="26.183" transform="translate(24.805 89.575)" fill="#f36d8f"/>
      <circle id="Ellipse_7-3" data-name="Ellipse 7" cx="26.183" cy="26.183" r="26.183" transform="translate(0 56.501)" fill="#f36d8f"/>
      <circle id="Ellipse_8-3" data-name="Ellipse 8" cx="26.183" cy="26.183" r="26.183" transform="translate(12.403 17.915)" fill="#f36d8f"/>
      <circle id="Ellipse_9-3" data-name="Ellipse 9" cx="26.183" cy="26.183" r="26.183" transform="translate(46.854)" fill="#f36d8f"/>
      <path id="Tracé_9" data-name="Tracé 9" d="M31.7,0A31.7,31.7,0,1,1,0,31.7,31.7,31.7,0,0,1,31.7,0Z" transform="translate(41.342 44.098)" fill="#de2e4b"/>
    </g>
    <g id="Groupe_6" data-name="Groupe 6" transform="translate(700.353 1192)">
      <g id="Groupe_5" data-name="Groupe 5" transform="translate(100.135 0) rotate(22)">
        <ellipse id="Ellipse_19" data-name="Ellipse 19" cx="13.5" cy="66.827" rx="13.5" ry="66.827" transform="translate(120.153 0)" fill="#de2e4b"/>
        <ellipse id="Ellipse_20" data-name="Ellipse 20" cx="13.5" cy="66.827" rx="13.5" ry="66.827" transform="translate(120.153 133.653)" fill="#de2e4b"/>
        <ellipse id="Ellipse_21" data-name="Ellipse 21" cx="13.5" cy="66.827" rx="13.5" ry="66.827" transform="translate(133.653 147.153) rotate(-90)" fill="#de2e4b"/>
        <ellipse id="Ellipse_22" data-name="Ellipse 22" cx="13.5" cy="66.827" rx="13.5" ry="66.827" transform="translate(0 147.153) rotate(-90)" fill="#de2e4b"/>
        <ellipse id="Ellipse_23" data-name="Ellipse 23" cx="13.5" cy="66.827" rx="13.5" ry="66.827" transform="translate(29.504 48.596) rotate(-45)" fill="#de2e4b"/>
        <ellipse id="Ellipse_24" data-name="Ellipse 24" cx="13.5" cy="66.827" rx="13.5" ry="66.827" transform="translate(124.878 143.97) rotate(-45)" fill="#de2e4b"/>
        <ellipse id="Ellipse_25" data-name="Ellipse 25" cx="13.5" cy="66.827" rx="13.5" ry="66.827" transform="translate(48.596 238.477) rotate(-135)" fill="#de2e4b"/>
        <ellipse id="Ellipse_26" data-name="Ellipse 26" cx="13.5" cy="66.827" rx="13.5" ry="66.827" transform="translate(143.97 143.103) rotate(-135)" fill="#de2e4b"/>
      </g>
      <circle id="Ellipse_27" data-name="Ellipse 27" cx="18.662" cy="18.662" r="18.662" transform="translate(155.741 155.741)" fill="#8a0d1e"/>
    </g>
    <g id="Groupe_12" data-name="Groupe 12" transform="translate(846.824 1359.936) rotate(13)">
      <g id="Groupe_11" data-name="Groupe 11" transform="translate(0 0)">
        <ellipse id="Ellipse_10-2" data-name="Ellipse 10" cx="12.403" cy="59.946" rx="12.403" ry="59.946" transform="translate(57.879 0)" fill="#f36d8f"/>
        <ellipse id="Ellipse_11-2" data-name="Ellipse 11" cx="12.403" cy="59.946" rx="12.403" ry="59.946" transform="translate(57.879 22.049)" fill="#f36d8f"/>
        <ellipse id="Ellipse_12-2" data-name="Ellipse 12" cx="11.714" cy="59.946" rx="11.714" ry="59.946" transform="translate(20.671 82.684) rotate(-90)" fill="#f36d8f"/>
        <ellipse id="Ellipse_13-2" data-name="Ellipse 13" cx="11.714" cy="59.946" rx="11.714" ry="59.946" transform="translate(0 82.684) rotate(-90)" fill="#f36d8f"/>
        <ellipse id="Ellipse_14-2" data-name="Ellipse 14" cx="12.08" cy="59.797" rx="12.08" ry="59.797" transform="translate(26.4 43.26) rotate(-45)" fill="#f36d8f"/>
        <ellipse id="Ellipse_16-2" data-name="Ellipse 16" cx="12.08" cy="59.797" rx="12.08" ry="59.797" transform="translate(13.226 31.58) rotate(-45)" fill="#f36d8f"/>
        <ellipse id="Ellipse_17-2" data-name="Ellipse 17" cx="12.08" cy="59.797" rx="12.08" ry="59.797" transform="translate(43.484 116.145) rotate(-135)" fill="#f36d8f"/>
        <ellipse id="Ellipse_18-2" data-name="Ellipse 18" cx="12.08" cy="59.797" rx="12.08" ry="59.797" transform="translate(30.31 127.825) rotate(-135)" fill="#f36d8f"/>
      </g>
      <circle id="Ellipse_15-2" data-name="Ellipse 15" cx="13.781" cy="13.781" r="13.781" transform="translate(56.501 57.879)" fill="#ffce0a"/>
    </g>
    <g id="Groupe_13" data-name="Groupe 13" transform="translate(927.52 1415.699)">
      <circle id="Ellipse_3-4" data-name="Ellipse 3" cx="28.25" cy="28.25" r="28.25" transform="translate(11.025 16.537)" fill="#f59fbd"/>
      <circle id="Ellipse_2-4" data-name="Ellipse 2" cx="15.159" cy="15.159" r="15.159" transform="translate(50.989 11.025)" fill="#f59fbd"/>
      <circle id="Ellipse_4-4" data-name="Ellipse 4" cx="15.848" cy="15.848" r="15.848" transform="translate(53.745 35.83)" fill="#f59fbd"/>
      <ellipse id="Ellipse_5-4" data-name="Ellipse 5" cx="15.848" cy="15.159" rx="15.848" ry="15.159" transform="translate(38.586 53.745)" fill="#f59fbd"/>
      <circle id="Ellipse_6-4" data-name="Ellipse 6" cx="15.159" cy="15.159" r="15.159" transform="translate(15.159 52.367)" fill="#f59fbd"/>
      <circle id="Ellipse_7-4" data-name="Ellipse 7" cx="15.159" cy="15.159" r="15.159" transform="translate(0 33.074)" fill="#f59fbd"/>
      <circle id="Ellipse_8-4" data-name="Ellipse 8" cx="15.848" cy="15.848" r="15.848" transform="translate(6.89 9.646)" fill="#f59fbd"/>
      <circle id="Ellipse_9-4" data-name="Ellipse 9" cx="15.159" cy="15.159" r="15.159" transform="translate(27.561 0)" fill="#f59fbd"/>
      <circle id="Ellipse_1-3" data-name="Ellipse 1" cx="18.604" cy="18.604" r="18.604" transform="translate(24.805 26.183)" fill="#ceeff4"/>
    </g>
    <g id="Groupe_17" data-name="Groupe 17" transform="translate(917.28 1275.874)">
      <circle id="Ellipse_3-5" data-name="Ellipse 3" cx="28.25" cy="28.25" r="28.25" transform="translate(11.025 16.537)" fill="#fff"/>
      <circle id="Ellipse_2-5" data-name="Ellipse 2" cx="15.159" cy="15.159" r="15.159" transform="translate(50.989 11.025)" fill="#ceeff4"/>
      <circle id="Ellipse_4-5" data-name="Ellipse 4" cx="15.848" cy="15.848" r="15.848" transform="translate(53.745 35.83)" fill="#ceeff4"/>
      <ellipse id="Ellipse_5-5" data-name="Ellipse 5" cx="15.848" cy="15.159" rx="15.848" ry="15.159" transform="translate(38.586 53.745)" fill="#ceeff4"/>
      <circle id="Ellipse_6-5" data-name="Ellipse 6" cx="15.159" cy="15.159" r="15.159" transform="translate(15.159 52.367)" fill="#ceeff4"/>
      <circle id="Ellipse_7-5" data-name="Ellipse 7" cx="15.159" cy="15.159" r="15.159" transform="translate(0 33.074)" fill="#ceeff4"/>
      <circle id="Ellipse_8-5" data-name="Ellipse 8" cx="15.848" cy="15.848" r="15.848" transform="translate(6.89 9.646)" fill="#ceeff4"/>
      <circle id="Ellipse_9-5" data-name="Ellipse 9" cx="15.159" cy="15.159" r="15.159" transform="translate(27.561)" fill="#ceeff4"/>
      <circle id="Ellipse_1-4" data-name="Ellipse 1" cx="18.604" cy="18.604" r="18.604" transform="translate(24.805 26.183)" fill="#de2e4b"/>
    </g>
    <g id="Groupe_15" data-name="Groupe 15" transform="matrix(0.616, 0.788, -0.788, 0.616, 1049.855, 1224.201)">
      <g id="Groupe_5-2" data-name="Groupe 5" transform="translate(47.115 0) rotate(22)">
        <ellipse id="Ellipse_19-2" data-name="Ellipse 19" cx="6.352" cy="31.443" rx="6.352" ry="31.443" transform="translate(56.533 0)" fill="#de2e4b"/>
        <ellipse id="Ellipse_20-2" data-name="Ellipse 20" cx="6.352" cy="31.443" rx="6.352" ry="31.443" transform="translate(56.533 62.886)" fill="#de2e4b"/>
        <ellipse id="Ellipse_21-2" data-name="Ellipse 21" cx="6.352" cy="31.443" rx="6.352" ry="31.443" transform="translate(62.886 69.238) rotate(-90)" fill="#de2e4b"/>
        <ellipse id="Ellipse_22-2" data-name="Ellipse 22" cx="6.352" cy="31.443" rx="6.352" ry="31.443" transform="translate(0 69.238) rotate(-90)" fill="#de2e4b"/>
        <ellipse id="Ellipse_23-2" data-name="Ellipse 23" cx="6.352" cy="31.443" rx="6.352" ry="31.443" transform="translate(13.882 22.865) rotate(-45)" fill="#de2e4b"/>
        <ellipse id="Ellipse_24-2" data-name="Ellipse 24" cx="6.352" cy="31.443" rx="6.352" ry="31.443" transform="translate(58.757 67.74) rotate(-45)" fill="#de2e4b"/>
        <ellipse id="Ellipse_25-2" data-name="Ellipse 25" cx="6.352" cy="31.443" rx="6.352" ry="31.443" transform="translate(22.865 112.207) rotate(-135)" fill="#de2e4b"/>
        <ellipse id="Ellipse_26-2" data-name="Ellipse 26" cx="6.352" cy="31.443" rx="6.352" ry="31.443" transform="translate(67.74 67.332) rotate(-135)" fill="#de2e4b"/>
      </g>
      <circle id="Ellipse_27-2" data-name="Ellipse 27" cx="8.781" cy="8.781" r="8.781" transform="translate(73.278 73.278)" fill="#ffce0a"/>
    </g>
    <g id="Groupe_19" data-name="Groupe 19" transform="translate(902.129 1377.056) rotate(-17)">
      <circle id="Ellipse_3-6" data-name="Ellipse 3" cx="10.01" cy="10.01" r="10.01" transform="translate(4.004 5.72)" fill="#fff"/>
      <circle id="Ellipse_2-6" data-name="Ellipse 2" cx="5.434" cy="5.434" r="5.434" transform="translate(18.018 4.004)" fill="#fff"/>
      <circle id="Ellipse_4-6" data-name="Ellipse 4" cx="5.434" cy="5.434" r="5.434" transform="translate(19.162 12.87)" fill="#fff"/>
      <circle id="Ellipse_5-6" data-name="Ellipse 5" cx="5.434" cy="5.434" r="5.434" transform="translate(13.728 18.876)" fill="#fff"/>
      <circle id="Ellipse_6-6" data-name="Ellipse 6" cx="5.434" cy="5.434" r="5.434" transform="translate(5.148 18.59)" fill="#fff"/>
      <circle id="Ellipse_7-6" data-name="Ellipse 7" cx="5.434" cy="5.434" r="5.434" transform="translate(0 11.726)" fill="#fff"/>
      <circle id="Ellipse_8-6" data-name="Ellipse 8" cx="5.434" cy="5.434" r="5.434" transform="translate(2.574 3.718)" fill="#fff"/>
      <circle id="Ellipse_9-6" data-name="Ellipse 9" cx="5.434" cy="5.434" r="5.434" transform="translate(9.724)" fill="#fff"/>
      <circle id="Ellipse_1-5" data-name="Ellipse 1" cx="6.578" cy="6.578" r="6.578" transform="translate(8.58 9.152)" fill="#ffce0a"/>
    </g>
    <g id="Groupe_20" data-name="Groupe 20" transform="translate(1082.829 1447.898) rotate(-17)">
      <circle id="Ellipse_3-7" data-name="Ellipse 3" cx="10.01" cy="10.01" r="10.01" transform="translate(4.004 5.72)" fill="#fff"/>
      <circle id="Ellipse_2-7" data-name="Ellipse 2" cx="5.434" cy="5.434" r="5.434" transform="translate(18.018 4.004)" fill="#fff"/>
      <circle id="Ellipse_4-7" data-name="Ellipse 4" cx="5.434" cy="5.434" r="5.434" transform="translate(19.162 12.87)" fill="#fff"/>
      <circle id="Ellipse_5-7" data-name="Ellipse 5" cx="5.434" cy="5.434" r="5.434" transform="translate(13.728 18.876)" fill="#fff"/>
      <circle id="Ellipse_6-7" data-name="Ellipse 6" cx="5.434" cy="5.434" r="5.434" transform="translate(5.148 18.59)" fill="#fff"/>
      <circle id="Ellipse_7-7" data-name="Ellipse 7" cx="5.434" cy="5.434" r="5.434" transform="translate(0 11.726)" fill="#fff"/>
      <circle id="Ellipse_8-7" data-name="Ellipse 8" cx="5.434" cy="5.434" r="5.434" transform="translate(2.574 3.718)" fill="#fff"/>
      <circle id="Ellipse_9-7" data-name="Ellipse 9" cx="5.434" cy="5.434" r="5.434" transform="translate(9.724)" fill="#fff"/>
      <circle id="Ellipse_1-6" data-name="Ellipse 1" cx="6.578" cy="6.578" r="6.578" transform="translate(8.58 9.152)" fill="#ffce0a"/>
    </g>
    <g id="Groupe_21" data-name="Groupe 21" transform="translate(1035.746 1321.499) rotate(-17)">
      <circle id="Ellipse_3-8" data-name="Ellipse 3" cx="10.01" cy="10.01" r="10.01" transform="translate(4.004 5.72)" fill="#fff"/>
      <circle id="Ellipse_2-8" data-name="Ellipse 2" cx="5.434" cy="5.434" r="5.434" transform="translate(18.018 4.004)" fill="#fff"/>
      <circle id="Ellipse_4-8" data-name="Ellipse 4" cx="5.434" cy="5.434" r="5.434" transform="translate(19.162 12.87)" fill="#fff"/>
      <circle id="Ellipse_5-8" data-name="Ellipse 5" cx="5.434" cy="5.434" r="5.434" transform="translate(13.728 18.876)" fill="#fff"/>
      <circle id="Ellipse_6-8" data-name="Ellipse 6" cx="5.434" cy="5.434" r="5.434" transform="translate(5.148 18.59)" fill="#fff"/>
      <circle id="Ellipse_7-8" data-name="Ellipse 7" cx="5.434" cy="5.434" r="5.434" transform="translate(0 11.726)" fill="#fff"/>
      <circle id="Ellipse_8-8" data-name="Ellipse 8" cx="5.434" cy="5.434" r="5.434" transform="translate(2.574 3.718)" fill="#fff"/>
      <circle id="Ellipse_9-8" data-name="Ellipse 9" cx="5.434" cy="5.434" r="5.434" transform="translate(9.724)" fill="#fff"/>
      <circle id="Ellipse_1-7" data-name="Ellipse 1" cx="6.578" cy="6.578" r="6.578" transform="translate(8.58 9.152)" fill="#ffce0a"/>
    </g>
    <g id="Groupe_23" data-name="Groupe 23" transform="translate(821.686 1331.492) rotate(-17)">
      <circle id="Ellipse_3-9" data-name="Ellipse 3" cx="10.01" cy="10.01" r="10.01" transform="translate(4.004 5.72)" fill="#fff"/>
      <circle id="Ellipse_2-9" data-name="Ellipse 2" cx="5.434" cy="5.434" r="5.434" transform="translate(18.018 4.004)" fill="#fff"/>
      <circle id="Ellipse_4-9" data-name="Ellipse 4" cx="5.434" cy="5.434" r="5.434" transform="translate(19.162 12.87)" fill="#fff"/>
      <circle id="Ellipse_5-9" data-name="Ellipse 5" cx="5.434" cy="5.434" r="5.434" transform="translate(13.728 18.876)" fill="#fff"/>
      <circle id="Ellipse_6-9" data-name="Ellipse 6" cx="5.434" cy="5.434" r="5.434" transform="translate(5.148 18.59)" fill="#fff"/>
      <circle id="Ellipse_7-9" data-name="Ellipse 7" cx="5.434" cy="5.434" r="5.434" transform="translate(0 11.726)" fill="#fff"/>
      <circle id="Ellipse_8-9" data-name="Ellipse 8" cx="5.434" cy="5.434" r="5.434" transform="translate(2.574 3.718)" fill="#fff"/>
      <circle id="Ellipse_9-9" data-name="Ellipse 9" cx="5.434" cy="5.434" r="5.434" transform="translate(9.724)" fill="#fff"/>
      <circle id="Ellipse_1-8" data-name="Ellipse 1" cx="6.578" cy="6.578" r="6.578" transform="translate(8.58 9.152)" fill="#ffce0a"/>
    </g>
    <path id="droplet-solid" d="M11.961,31.9A11.965,11.965,0,0,1,0,19.936C0,14.254,8.111,3.595,10.379.729A1.937,1.937,0,0,1,11.905,0h.112a1.937,1.937,0,0,1,1.526.729c2.268,2.866,10.379,13.525,10.379,19.207A11.965,11.965,0,0,1,11.961,31.9ZM5.981,20.932a1,1,0,0,0-1.994,0,6.974,6.974,0,0,0,6.977,6.977,1,1,0,1,0,0-1.994A4.983,4.983,0,0,1,5.981,20.932Z" transform="translate(1176.003 1318.046)" fill="#8a0d1e"/>
    <g id="Groupe_57" data-name="Groupe 57" transform="translate(-73.899 -111.715)">
      <g id="Groupe_10" data-name="Groupe 10" transform="translate(724.324 1448.343)">
        <circle id="Ellipse_2-10" data-name="Ellipse 2" cx="21.447" cy="21.447" r="21.447" transform="translate(71.113 15.803)" fill="#de2e4b"/>
        <circle id="Ellipse_4-10" data-name="Ellipse 4" cx="21.447" cy="21.447" r="21.447" transform="translate(75.628 50.795)" fill="#de2e4b"/>
        <circle id="Ellipse_5-10" data-name="Ellipse 5" cx="21.447" cy="21.447" r="21.447" transform="translate(54.181 74.499)" fill="#de2e4b"/>
        <circle id="Ellipse_6-10" data-name="Ellipse 6" cx="21.447" cy="21.447" r="21.447" transform="translate(20.318 73.37)" fill="#de2e4b"/>
        <circle id="Ellipse_7-10" data-name="Ellipse 7" cx="21.447" cy="21.447" r="21.447" transform="translate(0 46.28)" fill="#de2e4b"/>
        <circle id="Ellipse_8-10" data-name="Ellipse 8" cx="21.447" cy="21.447" r="21.447" transform="translate(10.159 14.674)" fill="#de2e4b"/>
        <circle id="Ellipse_9-10" data-name="Ellipse 9" cx="21.447" cy="21.447" r="21.447" transform="translate(38.378)" fill="#de2e4b"/>
      </g>
      <circle id="Ellipse_1-9" data-name="Ellipse 1" cx="25.962" cy="25.962" r="25.962" transform="translate(758.187 1484.464)" fill="#f36d8f"/>
    </g>
    <g id="Groupe_9" data-name="Groupe 9" transform="translate(731.607 1356.413) rotate(-17)">
      <circle id="Ellipse_3-10" data-name="Ellipse 3" cx="26.009" cy="26.009" r="26.009" transform="translate(10.403 14.862)" fill="#fff"/>
      <circle id="Ellipse_2-11" data-name="Ellipse 2" cx="14.119" cy="14.119" r="14.119" transform="translate(46.816 10.403)" fill="#fff"/>
      <circle id="Ellipse_4-11" data-name="Ellipse 4" cx="14.119" cy="14.119" r="14.119" transform="translate(49.788 33.44)" fill="#fff"/>
      <circle id="Ellipse_5-11" data-name="Ellipse 5" cx="14.119" cy="14.119" r="14.119" transform="translate(35.669 49.045)" fill="#fff"/>
      <circle id="Ellipse_6-11" data-name="Ellipse 6" cx="14.119" cy="14.119" r="14.119" transform="translate(13.376 48.302)" fill="#fff"/>
      <circle id="Ellipse_7-11" data-name="Ellipse 7" cx="14.119" cy="14.119" r="14.119" transform="translate(0 30.467)" fill="#fff"/>
      <circle id="Ellipse_8-11" data-name="Ellipse 8" cx="14.119" cy="14.119" r="14.119" transform="translate(6.688 9.66)" fill="#fff"/>
      <circle id="Ellipse_9-11" data-name="Ellipse 9" cx="14.119" cy="14.119" r="14.119" transform="translate(25.266)" fill="#fff"/>
      <circle id="Ellipse_1-10" data-name="Ellipse 1" cx="17.091" cy="17.091" r="17.091" transform="translate(22.293 23.779)" fill="#ffce0a"/>
    </g>
    <g id="Groupe_8" data-name="Groupe 8" transform="translate(712.814 1401.054)">
      <g id="Groupe_5-3" data-name="Groupe 5" transform="translate(45.333 0) rotate(22)">
        <ellipse id="Ellipse_19-3" data-name="Ellipse 19" cx="6.112" cy="30.253" rx="6.112" ry="30.253" transform="translate(54.395 0)" fill="#fff"/>
        <ellipse id="Ellipse_20-3" data-name="Ellipse 20" cx="6.112" cy="30.253" rx="6.112" ry="30.253" transform="translate(54.395 60.507)" fill="#fff"/>
        <ellipse id="Ellipse_21-3" data-name="Ellipse 21" cx="6.112" cy="30.253" rx="6.112" ry="30.253" transform="translate(60.507 66.619) rotate(-90)" fill="#fff"/>
        <ellipse id="Ellipse_22-3" data-name="Ellipse 22" cx="6.112" cy="30.253" rx="6.112" ry="30.253" transform="translate(0 66.619) rotate(-90)" fill="#fff"/>
        <ellipse id="Ellipse_23-3" data-name="Ellipse 23" cx="6.112" cy="30.253" rx="6.112" ry="30.253" transform="translate(13.357 22) rotate(-45)" fill="#fff"/>
        <ellipse id="Ellipse_24-3" data-name="Ellipse 24" cx="6.112" cy="30.253" rx="6.112" ry="30.253" transform="translate(56.534 65.178) rotate(-45)" fill="#fff"/>
        <ellipse id="Ellipse_25-3" data-name="Ellipse 25" cx="6.112" cy="30.253" rx="6.112" ry="30.253" transform="translate(22 107.963) rotate(-135)" fill="#fff"/>
        <ellipse id="Ellipse_26-3" data-name="Ellipse 26" cx="6.112" cy="30.253" rx="6.112" ry="30.253" transform="translate(65.178 64.785) rotate(-135)" fill="#fff"/>
      </g>
      <circle id="Ellipse_27-3" data-name="Ellipse 27" cx="8.449" cy="8.449" r="8.449" transform="translate(70.506 70.506)" fill="#de2e4b"/>
    </g>
    <g id="Groupe_14" data-name="Groupe 14" transform="translate(590.991 1408.288)">
      <circle id="Ellipse_3-11" data-name="Ellipse 3" cx="28.25" cy="28.25" r="28.25" transform="translate(11.025 16.537)" fill="#fff"/>
      <circle id="Ellipse_2-12" data-name="Ellipse 2" cx="15.159" cy="15.159" r="15.159" transform="translate(50.989 11.025)" fill="#ceeff4"/>
      <circle id="Ellipse_4-12" data-name="Ellipse 4" cx="15.848" cy="15.848" r="15.848" transform="translate(53.745 35.83)" fill="#ceeff4"/>
      <ellipse id="Ellipse_5-12" data-name="Ellipse 5" cx="15.848" cy="15.159" rx="15.848" ry="15.159" transform="translate(38.586 53.745)" fill="#ceeff4"/>
      <circle id="Ellipse_6-12" data-name="Ellipse 6" cx="15.159" cy="15.159" r="15.159" transform="translate(15.159 52.367)" fill="#ceeff4"/>
      <circle id="Ellipse_7-12" data-name="Ellipse 7" cx="15.159" cy="15.159" r="15.159" transform="translate(0 33.074)" fill="#ceeff4"/>
      <circle id="Ellipse_8-12" data-name="Ellipse 8" cx="15.848" cy="15.848" r="15.848" transform="translate(6.89 9.646)" fill="#ceeff4"/>
      <circle id="Ellipse_9-12" data-name="Ellipse 9" cx="15.159" cy="15.159" r="15.159" transform="translate(27.561)" fill="#ceeff4"/>
      <circle id="Ellipse_1-11" data-name="Ellipse 1" cx="18.604" cy="18.604" r="18.604" transform="translate(24.805 26.183)" fill="#f36d8f"/>
    </g>
    <g id="Groupe_58" data-name="Groupe 58" transform="translate(957.528 1379.699) rotate(-17)">
      <circle id="Ellipse_3-12" data-name="Ellipse 3" cx="29.105" cy="29.105" r="29.105" transform="translate(11.642 16.632)" fill="#fff"/>
      <circle id="Ellipse_2-13" data-name="Ellipse 2" cx="15.8" cy="15.8" r="15.8" transform="translate(52.389 11.642)" fill="#fff"/>
      <circle id="Ellipse_4-13" data-name="Ellipse 4" cx="15.8" cy="15.8" r="15.8" transform="translate(55.716 37.421)" fill="#fff"/>
      <circle id="Ellipse_5-13" data-name="Ellipse 5" cx="15.8" cy="15.8" r="15.8" transform="translate(39.916 54.884)" fill="#fff"/>
      <circle id="Ellipse_6-13" data-name="Ellipse 6" cx="15.8" cy="15.8" r="15.8" transform="translate(14.968 54.052)" fill="#fff"/>
      <circle id="Ellipse_7-13" data-name="Ellipse 7" cx="15.8" cy="15.8" r="15.8" transform="translate(0 34.095)" fill="#fff"/>
      <circle id="Ellipse_8-13" data-name="Ellipse 8" cx="15.8" cy="15.8" r="15.8" transform="translate(7.484 10.81)" fill="#fff"/>
      <circle id="Ellipse_9-13" data-name="Ellipse 9" cx="15.8" cy="15.8" r="15.8" transform="translate(28.274)" fill="#fff"/>
      <circle id="Ellipse_1-12" data-name="Ellipse 1" cx="19.126" cy="19.126" r="19.126" transform="translate(24.947 26.61)" fill="#ffce0a"/>
    </g>
    <g id="Groupe_7" data-name="Groupe 7" transform="translate(624.245 1272.737)">
      <ellipse id="Ellipse_10-3" data-name="Ellipse 10" cx="9.155" cy="44.03" rx="9.155" ry="44.03" transform="translate(42.723)" fill="#ffadbf"/>
      <ellipse id="Ellipse_11-3" data-name="Ellipse 11" cx="9.155" cy="44.03" rx="9.155" ry="44.03" transform="translate(42.723 16.566)" fill="#ffadbf"/>
      <ellipse id="Ellipse_12-3" data-name="Ellipse 12" cx="8.719" cy="44.466" rx="8.719" ry="44.466" transform="translate(14.822 61.032) rotate(-90)" fill="#ffadbf"/>
      <ellipse id="Ellipse_13-3" data-name="Ellipse 13" cx="8.719" cy="44.03" rx="8.719" ry="44.03" transform="translate(0 61.032) rotate(-90)" fill="#ffadbf"/>
      <ellipse id="Ellipse_14-3" data-name="Ellipse 14" cx="8.904" cy="44.077" rx="8.904" ry="44.077" transform="translate(19.46 31.887) rotate(-45)" fill="#ffadbf"/>
      <ellipse id="Ellipse_16-3" data-name="Ellipse 16" cx="8.904" cy="44.077" rx="8.904" ry="44.077" transform="translate(9.749 23.278) rotate(-45)" fill="#ffadbf"/>
      <ellipse id="Ellipse_17-3" data-name="Ellipse 17" cx="8.904" cy="44.077" rx="8.904" ry="44.077" transform="translate(32.053 85.612) rotate(-135)" fill="#ffadbf"/>
      <ellipse id="Ellipse_18-3" data-name="Ellipse 18" cx="8.904" cy="44.077" rx="8.904" ry="44.077" transform="translate(22.342 94.221) rotate(-135)" fill="#ffadbf"/>
      <circle id="Ellipse_15-3" data-name="Ellipse 15" cx="10.027" cy="10.027" r="10.027" transform="translate(41.851 42.723)" fill="#de2e4b"/>
    </g>
    <path id="droplet-solid-2" data-name="droplet-solid" d="M11.961,31.9A11.965,11.965,0,0,1,0,19.936C0,14.254,8.111,3.595,10.379.729A1.937,1.937,0,0,1,11.905,0h.112a1.937,1.937,0,0,1,1.526.729c2.268,2.866,10.379,13.525,10.379,19.207A11.965,11.965,0,0,1,11.961,31.9ZM5.981,20.932a1,1,0,0,0-1.994,0,6.974,6.974,0,0,0,6.977,6.977,1,1,0,1,0,0-1.994A4.983,4.983,0,0,1,5.981,20.932Z" transform="translate(731.607 1257)" fill="#8a0d1e"/>
    <g id="Groupe_59" data-name="Groupe 59" transform="translate(1243.168 1378.39) rotate(-17)">
      <circle id="Ellipse_3-13" data-name="Ellipse 3" cx="18.606" cy="18.606" r="18.606" transform="translate(7.442 10.632)" fill="#ffadbf"/>
      <circle id="Ellipse_2-14" data-name="Ellipse 2" cx="10.1" cy="10.1" r="10.1" transform="translate(33.491 7.442)" fill="#ffadbf"/>
      <circle id="Ellipse_4-14" data-name="Ellipse 4" cx="10.1" cy="10.1" r="10.1" transform="translate(35.617 23.922)" fill="#ffadbf"/>
      <circle id="Ellipse_5-14" data-name="Ellipse 5" cx="10.1" cy="10.1" r="10.1" transform="translate(25.517 35.085)" fill="#ffadbf"/>
      <circle id="Ellipse_6-14" data-name="Ellipse 6" cx="10.1" cy="10.1" r="10.1" transform="translate(9.569 34.554)" fill="#ffadbf"/>
      <circle id="Ellipse_7-14" data-name="Ellipse 7" cx="10.1" cy="10.1" r="10.1" transform="translate(0 21.795)" fill="#ffadbf"/>
      <circle id="Ellipse_8-14" data-name="Ellipse 8" cx="10.1" cy="10.1" r="10.1" transform="translate(4.784 6.911)" fill="#ffadbf"/>
      <circle id="Ellipse_9-14" data-name="Ellipse 9" cx="10.1" cy="10.1" r="10.1" transform="translate(18.074)" fill="#ffadbf"/>
      <circle id="Ellipse_1-13" data-name="Ellipse 1" cx="12.227" cy="12.227" r="12.227" transform="translate(15.948 17.011)" fill="#ceeff4"/>
    </g>
    <g id="Groupe_18" data-name="Groupe 18" transform="translate(1129.148 1396.666)">
      <g id="Groupe_11-2" data-name="Groupe 11" transform="translate(0 0)">
        <ellipse id="Ellipse_10-4" data-name="Ellipse 10" cx="8.268" cy="39.964" rx="8.268" ry="39.964" transform="translate(38.586 0)" fill="#ceeff4"/>
        <ellipse id="Ellipse_11-4" data-name="Ellipse 11" cx="8.268" cy="39.964" rx="8.268" ry="39.964" transform="translate(38.586 15.159)" fill="#ceeff4"/>
        <ellipse id="Ellipse_12-4" data-name="Ellipse 12" cx="7.579" cy="39.964" rx="7.579" ry="39.964" transform="translate(13.781 55.123) rotate(-90)" fill="#ceeff4"/>
        <ellipse id="Ellipse_13-4" data-name="Ellipse 13" cx="7.579" cy="39.964" rx="7.579" ry="39.964" transform="translate(0 55.123) rotate(-90)" fill="#ceeff4"/>
        <ellipse id="Ellipse_14-4" data-name="Ellipse 14" cx="8.096" cy="40.074" rx="8.096" ry="40.074" transform="translate(17.693 28.953) rotate(-45)" fill="#ceeff4"/>
        <ellipse id="Ellipse_16-4" data-name="Ellipse 16" cx="8.096" cy="40.074" rx="8.096" ry="40.074" transform="translate(8.864 21.125) rotate(-45)" fill="#ceeff4"/>
        <ellipse id="Ellipse_17-4" data-name="Ellipse 17" cx="8.096" cy="40.074" rx="8.096" ry="40.074" transform="translate(29.142 77.799) rotate(-135)" fill="#ceeff4"/>
        <ellipse id="Ellipse_18-4" data-name="Ellipse 18" cx="8.096" cy="40.074" rx="8.096" ry="40.074" transform="translate(20.313 85.626) rotate(-135)" fill="#ceeff4"/>
      </g>
      <circle id="Ellipse_15-4" data-name="Ellipse 15" cx="9.646" cy="9.646" r="9.646" transform="translate(37.208 38.586)" fill="#f36d8f"/>
    </g>
    <path id="droplet-solid-3" data-name="droplet-solid" d="M17.959,47.891A17.964,17.964,0,0,1,0,29.932C0,21.4,12.178,5.4,15.583,1.094A2.909,2.909,0,0,1,17.875,0h.168a2.909,2.909,0,0,1,2.292,1.094c3.4,4.3,15.583,20.307,15.583,28.837A17.964,17.964,0,0,1,17.959,47.891ZM8.979,31.428a1.5,1.5,0,1,0-2.993,0A10.471,10.471,0,0,0,16.462,41.9a1.5,1.5,0,0,0,0-2.993A7.481,7.481,0,0,1,8.979,31.428Z" transform="translate(1012.96 1497.086)" fill="#8a0d1e"/>
    <path id="droplet-solid-4" data-name="droplet-solid" d="M17.959,47.891A17.964,17.964,0,0,1,0,29.932C0,21.4,12.178,5.4,15.583,1.094A2.909,2.909,0,0,1,17.875,0h.168a2.909,2.909,0,0,1,2.292,1.094c3.4,4.3,15.583,20.307,15.583,28.837A17.964,17.964,0,0,1,17.959,47.891ZM8.979,31.428a1.5,1.5,0,1,0-2.993,0A10.471,10.471,0,0,0,16.462,41.9a1.5,1.5,0,0,0,0-2.993A7.481,7.481,0,0,1,8.979,31.428Z" transform="translate(821.686 1467.807)" fill="#8a0d1e"/>
    <g id="Groupe_60" data-name="Groupe 60" transform="translate(515.925 1378.39) rotate(-17)">
      <circle id="Ellipse_3-14" data-name="Ellipse 3" cx="18.606" cy="18.606" r="18.606" transform="translate(7.442 10.632)" fill="#f36d8f"/>
      <circle id="Ellipse_2-15" data-name="Ellipse 2" cx="10.1" cy="10.1" r="10.1" transform="translate(33.491 7.442)" fill="#f36d8f"/>
      <circle id="Ellipse_4-15" data-name="Ellipse 4" cx="10.1" cy="10.1" r="10.1" transform="translate(35.617 23.922)" fill="#f36d8f"/>
      <circle id="Ellipse_5-15" data-name="Ellipse 5" cx="10.1" cy="10.1" r="10.1" transform="translate(25.517 35.085)" fill="#f36d8f"/>
      <circle id="Ellipse_6-15" data-name="Ellipse 6" cx="10.1" cy="10.1" r="10.1" transform="translate(9.569 34.554)" fill="#f36d8f"/>
      <circle id="Ellipse_7-15" data-name="Ellipse 7" cx="10.1" cy="10.1" r="10.1" transform="translate(0 21.795)" fill="#f36d8f"/>
      <circle id="Ellipse_8-15" data-name="Ellipse 8" cx="10.1" cy="10.1" r="10.1" transform="translate(4.784 6.911)" fill="#f36d8f"/>
      <circle id="Ellipse_9-15" data-name="Ellipse 9" cx="10.1" cy="10.1" r="10.1" transform="translate(18.074)" fill="#f36d8f"/>
      <circle id="Ellipse_1-14" data-name="Ellipse 1" cx="12.227" cy="12.227" r="12.227" transform="translate(15.948 17.011)" fill="#ceeff4"/>
    </g>
    <g id="Groupe_22" data-name="Groupe 22" transform="translate(657.416 1370.851) rotate(-17)">
      <circle id="Ellipse_3-15" data-name="Ellipse 3" cx="10.01" cy="10.01" r="10.01" transform="translate(4.004 5.72)" fill="#fff"/>
      <circle id="Ellipse_2-16" data-name="Ellipse 2" cx="5.434" cy="5.434" r="5.434" transform="translate(18.018 4.004)" fill="#fff"/>
      <circle id="Ellipse_4-16" data-name="Ellipse 4" cx="5.434" cy="5.434" r="5.434" transform="translate(19.162 12.87)" fill="#fff"/>
      <circle id="Ellipse_5-16" data-name="Ellipse 5" cx="5.434" cy="5.434" r="5.434" transform="translate(13.728 18.876)" fill="#fff"/>
      <circle id="Ellipse_6-16" data-name="Ellipse 6" cx="5.434" cy="5.434" r="5.434" transform="translate(5.148 18.59)" fill="#fff"/>
      <circle id="Ellipse_7-16" data-name="Ellipse 7" cx="5.434" cy="5.434" r="5.434" transform="translate(0 11.726)" fill="#fff"/>
      <circle id="Ellipse_8-16" data-name="Ellipse 8" cx="5.434" cy="5.434" r="5.434" transform="translate(2.574 3.718)" fill="#fff"/>
      <circle id="Ellipse_9-16" data-name="Ellipse 9" cx="5.434" cy="5.434" r="5.434" transform="translate(9.724)" fill="#fff"/>
      <circle id="Ellipse_1-15" data-name="Ellipse 1" cx="6.578" cy="6.578" r="6.578" transform="translate(8.58 9.152)" fill="#ffce0a"/>
    </g>
    <g id="Groupe_24" data-name="Groupe 24" transform="translate(791.644 1400.622) rotate(-17)">
      <circle id="Ellipse_3-16" data-name="Ellipse 3" cx="10.01" cy="10.01" r="10.01" transform="translate(4.004 5.72)" fill="#ceeff4"/>
      <circle id="Ellipse_2-17" data-name="Ellipse 2" cx="5.434" cy="5.434" r="5.434" transform="translate(18.018 4.004)" fill="#ceeff4"/>
      <circle id="Ellipse_4-17" data-name="Ellipse 4" cx="5.434" cy="5.434" r="5.434" transform="translate(19.162 12.87)" fill="#ceeff4"/>
      <circle id="Ellipse_5-17" data-name="Ellipse 5" cx="5.434" cy="5.434" r="5.434" transform="translate(13.728 18.876)" fill="#ceeff4"/>
      <circle id="Ellipse_6-17" data-name="Ellipse 6" cx="5.434" cy="5.434" r="5.434" transform="translate(5.148 18.59)" fill="#ceeff4"/>
      <circle id="Ellipse_7-17" data-name="Ellipse 7" cx="5.434" cy="5.434" r="5.434" transform="translate(0 11.726)" fill="#ceeff4"/>
      <circle id="Ellipse_8-17" data-name="Ellipse 8" cx="5.434" cy="5.434" r="5.434" transform="translate(2.574 3.718)" fill="#ceeff4"/>
      <circle id="Ellipse_9-17" data-name="Ellipse 9" cx="5.434" cy="5.434" r="5.434" transform="translate(9.724)" fill="#ceeff4"/>
      <circle id="Ellipse_1-16" data-name="Ellipse 1" cx="6.578" cy="6.578" r="6.578" transform="translate(8.58 9.152)" fill="#ffadbf"/>
    </g>
  </g>
</svg>
