<svg xmlns="http://www.w3.org/2000/svg" width="213.488" height="392.166" viewBox="0 0 213.488 392.166">
  <g id="Groupe_43" data-name="Groupe 43" transform="translate(-1602.683 -1396)">
    <g id="Groupe_23" data-name="Groupe 23" transform="translate(1638.509 1448.754) rotate(-17)">
      <circle id="Ellipse_3" data-name="Ellipse 3" cx="12.467" cy="12.467" r="12.467" transform="translate(4.987 7.124)" fill="#ffce0a"/>
      <circle id="Ellipse_2" data-name="Ellipse 2" cx="6.768" cy="6.768" r="6.768" transform="translate(22.441 4.987)" fill="#ffce0a"/>
      <circle id="Ellipse_4" data-name="Ellipse 4" cx="6.768" cy="6.768" r="6.768" transform="translate(23.866 16.029)" fill="#ffce0a"/>
      <circle id="Ellipse_5" data-name="Ellipse 5" cx="6.768" cy="6.768" r="6.768" transform="translate(17.098 23.51)" fill="#ffce0a"/>
      <circle id="Ellipse_6" data-name="Ellipse 6" cx="6.768" cy="6.768" r="6.768" transform="translate(6.412 23.153)" fill="#ffce0a"/>
      <circle id="Ellipse_7" data-name="Ellipse 7" cx="6.768" cy="6.768" r="6.768" transform="translate(0 14.604)" fill="#ffce0a"/>
      <circle id="Ellipse_8" data-name="Ellipse 8" cx="6.768" cy="6.768" r="6.768" transform="translate(3.206 4.631)" fill="#ffce0a"/>
      <circle id="Ellipse_9" data-name="Ellipse 9" cx="6.768" cy="6.768" r="6.768" transform="translate(12.111)" fill="#ffce0a"/>
      <circle id="Ellipse_1" data-name="Ellipse 1" cx="8.193" cy="8.193" r="8.193" transform="translate(10.686 11.399)" fill="#f36d8f"/>
    </g>
    <g id="Groupe_42" data-name="Groupe 42">
      <g id="Groupe_41" data-name="Groupe 41">
        <g id="Groupe_18" data-name="Groupe 18" transform="matrix(0.951, -0.309, 0.309, 0.951, 1590.333, 1506.746)">
          <g id="Groupe_11" data-name="Groupe 11" transform="translate(0 0)">
            <ellipse id="Ellipse_10" data-name="Ellipse 10" cx="8.268" cy="39.964" rx="8.268" ry="39.964" transform="translate(38.586 0)" fill="#ceeff4"/>
            <ellipse id="Ellipse_11" data-name="Ellipse 11" cx="8.268" cy="39.964" rx="8.268" ry="39.964" transform="translate(38.586 15.159)" fill="#ceeff4"/>
            <ellipse id="Ellipse_12" data-name="Ellipse 12" cx="7.579" cy="39.964" rx="7.579" ry="39.964" transform="translate(13.781 55.123) rotate(-90)" fill="#ceeff4"/>
            <ellipse id="Ellipse_13" data-name="Ellipse 13" cx="7.579" cy="39.964" rx="7.579" ry="39.964" transform="translate(0 55.123) rotate(-90)" fill="#ceeff4"/>
            <ellipse id="Ellipse_14" data-name="Ellipse 14" cx="8.096" cy="40.074" rx="8.096" ry="40.074" transform="translate(17.693 28.953) rotate(-45)" fill="#ceeff4"/>
            <ellipse id="Ellipse_16" data-name="Ellipse 16" cx="8.096" cy="40.074" rx="8.096" ry="40.074" transform="translate(8.864 21.125) rotate(-45)" fill="#ceeff4"/>
            <ellipse id="Ellipse_17" data-name="Ellipse 17" cx="8.096" cy="40.074" rx="8.096" ry="40.074" transform="translate(29.142 77.799) rotate(-135)" fill="#ceeff4"/>
            <ellipse id="Ellipse_18" data-name="Ellipse 18" cx="8.096" cy="40.074" rx="8.096" ry="40.074" transform="translate(20.313 85.626) rotate(-135)" fill="#ceeff4"/>
          </g>
          <circle id="Ellipse_15" data-name="Ellipse 15" cx="9.646" cy="9.646" r="9.646" transform="translate(37.208 38.586)" fill="#f36d8f"/>
        </g>
        <g id="Groupe_40" data-name="Groupe 40">
          <g id="Groupe_39" data-name="Groupe 39" transform="translate(1133.792 -488.479)">
            <g id="Groupe_10" data-name="Groupe 10" transform="translate(521.324 2047.625)">
              <circle id="Ellipse_2-2" data-name="Ellipse 2" cx="22.691" cy="22.691" r="22.691" transform="translate(75.238 16.719)" fill="#f36d8f"/>
              <circle id="Ellipse_4-2" data-name="Ellipse 4" cx="22.691" cy="22.691" r="22.691" transform="translate(80.015 53.741)" fill="#f36d8f"/>
              <circle id="Ellipse_5-2" data-name="Ellipse 5" cx="22.691" cy="22.691" r="22.691" transform="translate(57.324 78.82)" fill="#f36d8f"/>
              <circle id="Ellipse_6-2" data-name="Ellipse 6" cx="22.691" cy="22.691" r="22.691" transform="translate(21.496 77.626)" fill="#f36d8f"/>
              <circle id="Ellipse_7-2" data-name="Ellipse 7" cx="22.691" cy="22.691" r="22.691" transform="translate(0 48.964)" fill="#f36d8f"/>
              <circle id="Ellipse_8-2" data-name="Ellipse 8" cx="22.691" cy="22.691" r="22.691" transform="translate(10.748 15.525)" fill="#f36d8f"/>
              <circle id="Ellipse_9-2" data-name="Ellipse 9" cx="22.691" cy="22.691" r="22.691" transform="translate(40.604)" fill="#f36d8f"/>
            </g>
            <circle id="Ellipse_1-2" data-name="Ellipse 1" cx="27.468" cy="27.468" r="27.468" transform="translate(557.151 2085.841)" fill="#ffadbf"/>
          </g>
          <g id="Groupe_6" data-name="Groupe 6" transform="translate(1628.129 1414.638)">
            <g id="Groupe_5" data-name="Groupe 5" transform="translate(47.977 0) rotate(22)">
              <ellipse id="Ellipse_19" data-name="Ellipse 19" cx="6.468" cy="32.018" rx="6.468" ry="32.018" transform="translate(57.568 0)" fill="#de2e4b"/>
              <ellipse id="Ellipse_20" data-name="Ellipse 20" cx="6.468" cy="32.018" rx="6.468" ry="32.018" transform="translate(57.568 64.036)" fill="#de2e4b"/>
              <ellipse id="Ellipse_21" data-name="Ellipse 21" cx="6.468" cy="32.018" rx="6.468" ry="32.018" transform="translate(64.036 70.505) rotate(-90)" fill="#de2e4b"/>
              <ellipse id="Ellipse_22" data-name="Ellipse 22" cx="6.468" cy="32.018" rx="6.468" ry="32.018" transform="translate(0 70.505) rotate(-90)" fill="#de2e4b"/>
              <ellipse id="Ellipse_23" data-name="Ellipse 23" cx="6.468" cy="32.018" rx="6.468" ry="32.018" transform="translate(14.136 23.284) rotate(-45)" fill="#de2e4b"/>
              <ellipse id="Ellipse_24" data-name="Ellipse 24" cx="6.468" cy="32.018" rx="6.468" ry="32.018" transform="translate(59.832 68.98) rotate(-45)" fill="#de2e4b"/>
              <ellipse id="Ellipse_25" data-name="Ellipse 25" cx="6.468" cy="32.018" rx="6.468" ry="32.018" transform="translate(23.284 114.26) rotate(-135)" fill="#de2e4b"/>
              <ellipse id="Ellipse_26" data-name="Ellipse 26" cx="6.468" cy="32.018" rx="6.468" ry="32.018" transform="translate(68.98 68.564) rotate(-135)" fill="#de2e4b"/>
            </g>
            <circle id="Ellipse_27" data-name="Ellipse 27" cx="8.942" cy="8.942" r="8.942" transform="translate(74.619 74.619)" fill="#ffadbf"/>
          </g>
          <g id="Groupe_17" data-name="Groupe 17" transform="translate(1725.486 1516.938)">
            <circle id="Ellipse_3-2" data-name="Ellipse 3" cx="28.25" cy="28.25" r="28.25" transform="translate(11.025 16.537)" fill="#fff"/>
            <circle id="Ellipse_2-3" data-name="Ellipse 2" cx="15.159" cy="15.159" r="15.159" transform="translate(50.989 11.025)" fill="#ceeff4"/>
            <circle id="Ellipse_4-3" data-name="Ellipse 4" cx="15.848" cy="15.848" r="15.848" transform="translate(53.745 35.83)" fill="#ceeff4"/>
            <ellipse id="Ellipse_5-3" data-name="Ellipse 5" cx="15.848" cy="15.159" rx="15.848" ry="15.159" transform="translate(38.586 53.745)" fill="#ceeff4"/>
            <circle id="Ellipse_6-3" data-name="Ellipse 6" cx="15.159" cy="15.159" r="15.159" transform="translate(15.159 52.367)" fill="#ceeff4"/>
            <circle id="Ellipse_7-3" data-name="Ellipse 7" cx="15.159" cy="15.159" r="15.159" transform="translate(0 33.074)" fill="#ceeff4"/>
            <circle id="Ellipse_8-3" data-name="Ellipse 8" cx="15.848" cy="15.848" r="15.848" transform="translate(6.89 9.646)" fill="#ceeff4"/>
            <circle id="Ellipse_9-3" data-name="Ellipse 9" cx="15.159" cy="15.159" r="15.159" transform="translate(27.561)" fill="#ceeff4"/>
            <circle id="Ellipse_1-3" data-name="Ellipse 1" cx="18.604" cy="18.604" r="18.604" transform="translate(24.805 26.183)" fill="#f59fbd"/>
          </g>
          <g id="Groupe_20" data-name="Groupe 20" transform="translate(1711.491 1530.525) rotate(-17)">
            <circle id="Ellipse_3-3" data-name="Ellipse 3" cx="10.01" cy="10.01" r="10.01" transform="translate(4.004 5.72)" fill="#fff"/>
            <circle id="Ellipse_2-4" data-name="Ellipse 2" cx="5.434" cy="5.434" r="5.434" transform="translate(18.018 4.004)" fill="#fff"/>
            <circle id="Ellipse_4-4" data-name="Ellipse 4" cx="5.434" cy="5.434" r="5.434" transform="translate(19.162 12.87)" fill="#fff"/>
            <circle id="Ellipse_5-4" data-name="Ellipse 5" cx="5.434" cy="5.434" r="5.434" transform="translate(13.728 18.876)" fill="#fff"/>
            <circle id="Ellipse_6-4" data-name="Ellipse 6" cx="5.434" cy="5.434" r="5.434" transform="translate(5.148 18.59)" fill="#fff"/>
            <circle id="Ellipse_7-4" data-name="Ellipse 7" cx="5.434" cy="5.434" r="5.434" transform="translate(0 11.726)" fill="#fff"/>
            <circle id="Ellipse_8-4" data-name="Ellipse 8" cx="5.434" cy="5.434" r="5.434" transform="translate(2.574 3.718)" fill="#fff"/>
            <circle id="Ellipse_9-4" data-name="Ellipse 9" cx="5.434" cy="5.434" r="5.434" transform="translate(9.724)" fill="#fff"/>
            <circle id="Ellipse_1-4" data-name="Ellipse 1" cx="6.578" cy="6.578" r="6.578" transform="translate(8.58 9.152)" fill="#ffce0a"/>
          </g>
          <g id="Groupe_24" data-name="Groupe 24" transform="translate(1780.513 1654.904) rotate(-17)">
            <circle id="Ellipse_3-4" data-name="Ellipse 3" cx="10.01" cy="10.01" r="10.01" transform="translate(4.004 5.72)" fill="#f59fbd"/>
            <circle id="Ellipse_2-5" data-name="Ellipse 2" cx="5.434" cy="5.434" r="5.434" transform="translate(18.018 4.004)" fill="#f59fbd"/>
            <circle id="Ellipse_4-5" data-name="Ellipse 4" cx="5.434" cy="5.434" r="5.434" transform="translate(19.162 12.87)" fill="#f59fbd"/>
            <circle id="Ellipse_5-5" data-name="Ellipse 5" cx="5.434" cy="5.434" r="5.434" transform="translate(13.728 18.876)" fill="#f59fbd"/>
            <circle id="Ellipse_6-5" data-name="Ellipse 6" cx="5.434" cy="5.434" r="5.434" transform="translate(5.148 18.59)" fill="#f59fbd"/>
            <circle id="Ellipse_7-5" data-name="Ellipse 7" cx="5.434" cy="5.434" r="5.434" transform="translate(0 11.726)" fill="#f59fbd"/>
            <circle id="Ellipse_8-5" data-name="Ellipse 8" cx="5.434" cy="5.434" r="5.434" transform="translate(2.574 3.718)" fill="#f59fbd"/>
            <circle id="Ellipse_9-5" data-name="Ellipse 9" cx="5.434" cy="5.434" r="5.434" transform="translate(9.724)" fill="#f59fbd"/>
            <circle id="Ellipse_1-5" data-name="Ellipse 1" cx="6.578" cy="6.578" r="6.578" transform="translate(8.58 9.152)" fill="#8a0d1e"/>
          </g>
          <path id="droplet-solid" d="M17.959,47.891A17.964,17.964,0,0,1,0,29.932C0,21.4,12.178,5.4,15.583,1.094A2.909,2.909,0,0,1,17.875,0h.168a2.909,2.909,0,0,1,2.292,1.094c3.4,4.3,15.583,20.307,15.583,28.837A17.964,17.964,0,0,1,17.959,47.891ZM8.979,31.428a1.5,1.5,0,1,0-2.993,0A10.471,10.471,0,0,0,16.462,41.9a1.5,1.5,0,0,0,0-2.993A7.481,7.481,0,0,1,8.979,31.428Z" transform="translate(1707.527 1740.276)" fill="#8a0d1e"/>
        </g>
      </g>
      <path id="droplet-solid-2" data-name="droplet-solid" d="M11.961,31.9A11.965,11.965,0,0,1,0,19.936C0,14.254,8.111,3.595,10.379.729A1.937,1.937,0,0,1,11.905,0h.112a1.937,1.937,0,0,1,1.526.729c2.268,2.866,10.379,13.525,10.379,19.207A11.965,11.965,0,0,1,11.961,31.9ZM5.981,20.932a1,1,0,0,0-1.994,0,6.974,6.974,0,0,0,6.977,6.977,1,1,0,1,0,0-1.994A4.983,4.983,0,0,1,5.981,20.932Z" transform="translate(1749.004 1396)" fill="#8a0d1e"/>
    </g>
  </g>
</svg>
