<svg xmlns="http://www.w3.org/2000/svg" width="190.401" height="58.346" viewBox="0 0 190.401 58.346">
  <g id="Groupe_87" data-name="Groupe 87" transform="translate(-120.324 -760.796)">
    <path id="Tracé_12" data-name="Tracé 12" d="M17.649,15.9,14.538,26.593a3.528,3.528,0,0,0,.583.049,5.45,5.45,0,0,0,2.99-1.2,13.041,13.041,0,0,0,3.318-3.186,5.811,5.811,0,0,0,1.179-3.308q0-3.345-3.518-3.345A2.772,2.772,0,0,0,17.649,15.9ZM14,28.451q-.1.317-.2.708t-.2.732q-1.154,3.88-2.119,6.3a24.66,24.66,0,0,1-2.039,4.1A11.435,11.435,0,0,1,7.69,42.462q2.954.9,4.211,1.172a11.952,11.952,0,0,0,2.5.269,7.076,7.076,0,0,0,2.552-.427A6.17,6.17,0,0,0,19.043,42.1a11.352,11.352,0,0,0,2.344-3.369,8.991,8.991,0,0,0,.9-3.784,4.62,4.62,0,0,0-1.39-3.394,4.918,4.918,0,0,0-1.524-1.05,10.164,10.164,0,0,0-2.329-.61,9.718,9.718,0,0,1-1.9-.512A3.667,3.667,0,0,1,14,28.451Zm-10.653,3.2L6.2,22.857a34.975,34.975,0,0,1,2-4.614,2.874,2.874,0,0,0-.562.269,7.6,7.6,0,0,1-2.393.684q-1,0-1-.757a5.685,5.685,0,0,1,.781-2.319,8.8,8.8,0,0,1,1.563-2.271,12.756,12.756,0,0,1,5.432-2.588,32.373,32.373,0,0,1,8.167-.952,24.14,24.14,0,0,1,4.944.464,12.519,12.519,0,0,1,3.772,1.379,6.813,6.813,0,0,1,2.38,2.209,5.281,5.281,0,0,1,.818,2.881,8.25,8.25,0,0,1-.928,3.955,10.2,10.2,0,0,1-2.93,3.247,12.77,12.77,0,0,1-4.2,2.2,4.734,4.734,0,0,1-.757.146v.122q8.569,1.1,8.569,7.08a8.367,8.367,0,0,1-.4,2.49,11.118,11.118,0,0,1-1.172,2.539,11.438,11.438,0,0,1-1.843,2.271,30.948,30.948,0,0,1-5.505,4.224,36.733,36.733,0,0,1-6.409,3.149,16.338,16.338,0,0,1-5.518,1.2,15.3,15.3,0,0,1-3.7-.439,8.705,8.705,0,0,1-2.82-1.16,1.97,1.97,0,0,1-1.05-1.55,2.556,2.556,0,0,1,.427-1.416,8.446,8.446,0,0,1,1.575-1.636l-.1-.1a3.71,3.71,0,0,1-1.294.244,3.041,3.041,0,0,1-2.173-.781A2.777,2.777,0,0,1,1.05,40.9a20.537,20.537,0,0,1,.684-3.528Q2.417,34.6,3.345,31.646Zm44.7-8.595L47.239,25q-1.587,3.76-2.953,7.5-.659,1.807-2,6.3a51.323,51.323,0,0,0,5.445-.855,21.47,21.47,0,0,1,2.662-.439q.854,0,.854.684a4.73,4.73,0,0,1-.94,2.258,12.314,12.314,0,0,1-2.112,2.5A4.668,4.668,0,0,1,45.8,44a30.071,30.071,0,0,1-4.956.293,45.742,45.742,0,0,1-4.858-.2q-.024,0-.806-.244a2.369,2.369,0,0,1-1.392-2.441,28.117,28.117,0,0,1,.769-4.907q.769-3.564,2.234-8.862,3.32-11.816,5-14.6a4.109,4.109,0,0,1,1.354-1.477,6.663,6.663,0,0,1,2.233-.818,15.127,15.127,0,0,1,3.148-.293,4.607,4.607,0,0,1,2.332.427,1.613,1.613,0,0,1,.671,1.477,15.283,15.283,0,0,1-.879,3.747Q49.777,18.853,48.044,23.052Zm20.145-5.59a23.264,23.264,0,0,0-2.454,2.771,17.86,17.86,0,0,0-1.648,3.113,13.191,13.191,0,0,0-.952,3.1,15.472,15.472,0,0,0-.366,3.711,19.75,19.75,0,0,0,.61,5.334,6.743,6.743,0,0,0,1.807,3.223A4.135,4.135,0,0,0,68.066,39.8a4.877,4.877,0,0,0,2.8-1,10.876,10.876,0,0,0,2.588-2.625,14.536,14.536,0,0,0,1.868-3.625,11.55,11.55,0,0,0,.708-3.857A13.136,13.136,0,0,0,73.73,21.71a5.26,5.26,0,0,1-.854-2,2.794,2.794,0,0,1,1.1-2,14.646,14.646,0,0,1,2.856-2.124,5.642,5.642,0,0,1,2.539-.928,2.885,2.885,0,0,1,1.135.256,2.336,2.336,0,0,1,.916.647,6.547,6.547,0,0,1,1.294,2.966,19.776,19.776,0,0,1,.513,4.578,24.092,24.092,0,0,1-2.356,10.632,19.7,19.7,0,0,1-6.4,7.715,14.9,14.9,0,0,1-8.752,2.844,15.153,15.153,0,0,1-5.371-1,11.783,11.783,0,0,1-4.321-2.686,9.938,9.938,0,0,1-2.808-7.349,17.068,17.068,0,0,1,1.025-5.591,27.056,27.056,0,0,1,2.82-5.75,29.566,29.566,0,0,1,4.15-5.115,21.524,21.524,0,0,1,4.846-3.662,23.9,23.9,0,0,1,4.883-1.953,17.3,17.3,0,0,1,4.59-.732q2.783,0,2.783.854a2.079,2.079,0,0,1-.586,1.05,9.137,9.137,0,0,1-1.868,1.416,14.877,14.877,0,0,1-2.6.928,16.214,16.214,0,0,0-2.832,1.062A12.96,12.96,0,0,0,68.188,17.462Zm31.738,0a23.264,23.264,0,0,0-2.454,2.771,17.86,17.86,0,0,0-1.648,3.113,13.191,13.191,0,0,0-.952,3.1,15.472,15.472,0,0,0-.366,3.711,19.75,19.75,0,0,0,.61,5.334,6.743,6.743,0,0,0,1.807,3.223A4.135,4.135,0,0,0,99.8,39.8a4.877,4.877,0,0,0,2.8-1,10.876,10.876,0,0,0,2.588-2.625,14.536,14.536,0,0,0,1.868-3.625,11.55,11.55,0,0,0,.708-3.857,13.136,13.136,0,0,0-2.295-6.982,5.26,5.26,0,0,1-.854-2,2.794,2.794,0,0,1,1.1-2,14.646,14.646,0,0,1,2.856-2.124,5.642,5.642,0,0,1,2.539-.928,2.885,2.885,0,0,1,1.135.256,2.336,2.336,0,0,1,.916.647,6.547,6.547,0,0,1,1.294,2.966,19.776,19.776,0,0,1,.513,4.578,24.092,24.092,0,0,1-2.356,10.632,19.7,19.7,0,0,1-6.4,7.715,14.9,14.9,0,0,1-8.752,2.844,15.153,15.153,0,0,1-5.371-1,11.783,11.783,0,0,1-4.321-2.686,9.938,9.938,0,0,1-2.808-7.349,17.068,17.068,0,0,1,1.025-5.591,27.056,27.056,0,0,1,2.82-5.75,29.566,29.566,0,0,1,4.15-5.115A21.524,21.524,0,0,1,97.8,13.141a23.9,23.9,0,0,1,4.883-1.953,17.3,17.3,0,0,1,4.59-.732q2.783,0,2.783.854a2.079,2.079,0,0,1-.586,1.05,9.137,9.137,0,0,1-1.868,1.416,14.877,14.877,0,0,1-2.6.928,16.214,16.214,0,0,0-2.832,1.062A12.96,12.96,0,0,0,99.927,17.462ZM133.2,15.7l-4.9,18.555q-.048.171-.195.9a12.328,12.328,0,0,1-1,2.979A9.946,9.946,0,0,1,125.855,40q.708.049,1.587.049a18.643,18.643,0,0,0,3.54-.281,8.9,8.9,0,0,0,2.637-.964,10.514,10.514,0,0,0,2.295-1.758,14.448,14.448,0,0,0,3.113-4.81,15.922,15.922,0,0,0,1.086-5.933,15.331,15.331,0,0,0-.879-5.322,9.092,9.092,0,0,0-2.443-3.772A5.825,5.825,0,0,0,133.2,15.7ZM116.7,40l5.811-19.6a11.017,11.017,0,0,1,1.294-3.2,3.377,3.377,0,0,1,1.1-.9v-.1h-.342a11.672,11.672,0,0,0-2.954.806,12.781,12.781,0,0,1-3.394.854,1,1,0,0,1-.671-.171.777.777,0,0,1-.183-.586,5.037,5.037,0,0,1,.549-2.136,7.988,7.988,0,0,1,1.428-2.087,5.443,5.443,0,0,1,1.807-1.318A25.041,25.041,0,0,1,126.9,10.26a62.727,62.727,0,0,1,7.91-.464,19.08,19.08,0,0,1,7.813,1.44,10.462,10.462,0,0,1,4.9,4.272,13.216,13.216,0,0,1,1.672,6.836,22.164,22.164,0,0,1-1.6,8.118,20.659,20.659,0,0,1-4.236,6.848q-6.177,6.543-16.5,6.543a31.687,31.687,0,0,1-6.067-.537A8.292,8.292,0,0,1,117.163,42,1.543,1.543,0,0,1,116.6,40.7,4.1,4.1,0,0,1,116.7,40Z" transform="translate(119.275 751)" fill="#fff"/>
    <path id="Tracé_4" data-name="Tracé 4" d="M1071.2,111.557c-20.589.275-21.483-2.69-8.621-17.042.576-.643,1.376-1.522,2.223-2.442,15.122-16.43-12.359-8.87-12.359-8.87l-1.918,6.721s13.072-5.419,3.674,3.627-22.6,30.987,14.66,19.008S1071.2,111.557,1071.2,111.557Z" transform="translate(-781.486 697.033)" fill="#fff" stroke="#fff" stroke-width="1"/>
    <g id="Groupe_1" data-name="Groupe 1" transform="translate(280.38 788.273)">
      <path id="heart-solid" d="M2.14,12.431l8.124,8.12a1.74,1.74,0,0,0,2.491,0l8.124-8.12a7.447,7.447,0,0,0,2.14-5.271V6.881A6.761,6.761,0,0,0,17.651.094a6.166,6.166,0,0,0-5.6,1.921l-.54.578-.54-.578A6.166,6.166,0,0,0,5.368.094,6.761,6.761,0,0,0,0,6.881V7.16A7.447,7.447,0,0,0,2.14,12.431Z" transform="matrix(0.559, 0.829, -0.829, 0.559, 17.473, 0)" fill="#fff"/>
      <path id="heart-solid-2" data-name="heart-solid" d="M1.3,7.542l4.929,4.926a1.056,1.056,0,0,0,1.511,0l4.929-4.926a4.518,4.518,0,0,0,1.3-3.2V4.174A4.1,4.1,0,0,0,10.709.057a3.74,3.74,0,0,0-3.4,1.165l-.327.35-.327-.35A3.74,3.74,0,0,0,3.257.057,4.1,4.1,0,0,0,0,4.174v.169A4.518,4.518,0,0,0,1.3,7.542Z" transform="matrix(0.559, 0.829, -0.829, 0.559, 17.226, 6.071)" fill="#de2e4b"/>
      <path id="heart-solid-3" data-name="heart-solid" d="M.683,3.97,3.278,6.563a.556.556,0,0,0,.8,0L6.668,3.97a2.378,2.378,0,0,0,.683-1.683V2.2A2.159,2.159,0,0,0,5.637.03,1.969,1.969,0,0,0,3.848.643L3.676.828,3.5.643A1.969,1.969,0,0,0,1.714.03,2.159,2.159,0,0,0,0,2.2v.089A2.378,2.378,0,0,0,.683,3.97Z" transform="matrix(0.559, 0.829, -0.829, 0.559, 16.565, 10.505)" fill="#8a0d1e"/>
    </g>
  </g>
</svg>
