<svg xmlns="http://www.w3.org/2000/svg" width="352.922" height="112.69" viewBox="0 0 352.922 112.69">
  <g id="Groupe_88" data-name="Groupe 88" transform="translate(-823.39 -108.433)">
    <path id="Tracé_13" data-name="Tracé 13" d="M31.768,28.418l-5.6,19.249a6.352,6.352,0,0,0,1.05.088A9.811,9.811,0,0,0,32.6,45.6a23.473,23.473,0,0,0,5.972-5.735,10.46,10.46,0,0,0,2.122-5.955q0-6.021-6.332-6.021A4.99,4.99,0,0,0,31.768,28.418ZM25.2,51.011q-.177.571-.354,1.274T24.489,53.6q-2.078,6.984-3.814,11.335a44.388,44.388,0,0,1-3.669,7.383,20.582,20.582,0,0,1-3.164,3.911q5.317,1.626,7.581,2.109a21.513,21.513,0,0,0,4.5.483,12.736,12.736,0,0,0,4.593-.769,11.107,11.107,0,0,0,3.757-2.483A20.433,20.433,0,0,0,38.5,69.508,16.184,16.184,0,0,0,40.122,62.7a8.316,8.316,0,0,0-2.5-6.108,8.852,8.852,0,0,0-2.744-1.89,18.3,18.3,0,0,0-4.193-1.1,17.493,17.493,0,0,1-3.424-.921A6.6,6.6,0,0,1,25.2,51.011ZM6.021,56.764l5.142-15.82a62.955,62.955,0,0,1,3.6-8.306,5.173,5.173,0,0,0-1.011.483,13.687,13.687,0,0,1-4.307,1.23q-1.8,0-1.8-1.362a10.234,10.234,0,0,1,1.406-4.175,15.83,15.83,0,0,1,2.813-4.087q3.208-2.944,9.778-4.658a58.272,58.272,0,0,1,14.7-1.714,43.452,43.452,0,0,1,8.9.835,22.535,22.535,0,0,1,6.79,2.483,12.263,12.263,0,0,1,4.285,3.977,9.506,9.506,0,0,1,1.472,5.186,14.851,14.851,0,0,1-1.67,7.119A18.361,18.361,0,0,1,50.845,43.8a22.985,22.985,0,0,1-7.559,3.955,8.521,8.521,0,0,1-1.362.264v.22q15.425,1.978,15.425,12.744a15.061,15.061,0,0,1-.725,4.482,20.012,20.012,0,0,1-2.109,4.57A20.588,20.588,0,0,1,51.2,74.122a55.706,55.706,0,0,1-9.91,7.6,66.12,66.12,0,0,1-11.536,5.669,29.409,29.409,0,0,1-9.932,2.153,27.533,27.533,0,0,1-6.658-.791,15.67,15.67,0,0,1-5.076-2.087A3.546,3.546,0,0,1,6.2,83.878a4.6,4.6,0,0,1,.769-2.549A15.2,15.2,0,0,1,9.8,78.385l-.176-.176a6.678,6.678,0,0,1-2.329.439,5.474,5.474,0,0,1-3.911-1.406A5,5,0,0,1,1.89,73.419a36.966,36.966,0,0,1,1.23-6.35Q4.351,62.081,6.021,56.764ZM86.479,41.293l-1.45,3.516Q82.174,51.577,79.713,58.3q-1.186,3.253-3.6,11.339a92.381,92.381,0,0,0,9.8-1.539,38.646,38.646,0,0,1,4.791-.791q1.538,0,1.538,1.23a8.514,8.514,0,0,1-1.692,4.065,22.165,22.165,0,0,1-3.8,4.5A8.4,8.4,0,0,1,82.441,79a54.128,54.128,0,0,1-8.921.527,82.335,82.335,0,0,1-8.745-.352q-.044,0-1.45-.439-2.5-1.055-2.5-4.395A50.611,50.611,0,0,1,62.2,65.509q1.384-6.416,4.021-15.952,5.977-21.27,9.009-26.279a7.4,7.4,0,0,1,2.438-2.659,11.993,11.993,0,0,1,4.019-1.472,27.228,27.228,0,0,1,5.667-.527,8.292,8.292,0,0,1,4.2.769,2.9,2.9,0,0,1,1.208,2.659,27.509,27.509,0,0,1-1.582,6.745Q89.6,33.735,86.479,41.293Zm36.26-10.061a41.875,41.875,0,0,0-4.417,4.988,32.148,32.148,0,0,0-2.966,5.6,23.744,23.744,0,0,0-1.714,5.581,27.85,27.85,0,0,0-.659,6.68,35.549,35.549,0,0,0,1.1,9.6,12.138,12.138,0,0,0,3.252,5.8,7.443,7.443,0,0,0,5.186,1.956,8.779,8.779,0,0,0,5.032-1.8,19.577,19.577,0,0,0,4.658-4.724,26.165,26.165,0,0,0,3.362-6.526,20.789,20.789,0,0,0,1.274-6.943q0-6.021-4.131-12.568a9.468,9.468,0,0,1-1.538-3.6,5.03,5.03,0,0,1,1.978-3.6,26.363,26.363,0,0,1,5.142-3.823,10.155,10.155,0,0,1,4.57-1.67,5.193,5.193,0,0,1,2.043.461,4.206,4.206,0,0,1,1.648,1.165q1.406,1.45,2.329,5.339a35.6,35.6,0,0,1,.923,8.24,43.365,43.365,0,0,1-4.241,19.138,35.461,35.461,0,0,1-11.514,13.887,26.823,26.823,0,0,1-15.754,5.12,27.275,27.275,0,0,1-9.668-1.8,21.21,21.21,0,0,1-7.778-4.834Q95.8,67.838,95.8,59.664A30.722,30.722,0,0,1,97.646,49.6a48.7,48.7,0,0,1,5.076-10.349,53.219,53.219,0,0,1,7.471-9.207,38.743,38.743,0,0,1,8.723-6.592,43.017,43.017,0,0,1,8.789-3.516,31.139,31.139,0,0,1,8.262-1.318q5.01,0,5.01,1.538a3.742,3.742,0,0,1-1.055,1.89A16.447,16.447,0,0,1,136.56,24.6a26.778,26.778,0,0,1-4.68,1.67,29.185,29.185,0,0,0-5.1,1.912A23.329,23.329,0,0,0,122.739,31.231Zm57.129,0a41.875,41.875,0,0,0-4.417,4.988,32.148,32.148,0,0,0-2.966,5.6,23.744,23.744,0,0,0-1.714,5.581,27.85,27.85,0,0,0-.659,6.68,35.549,35.549,0,0,0,1.1,9.6,12.138,12.138,0,0,0,3.252,5.8,7.443,7.443,0,0,0,5.186,1.956,8.779,8.779,0,0,0,5.032-1.8,19.577,19.577,0,0,0,4.658-4.724A26.165,26.165,0,0,0,192.7,58.39a20.789,20.789,0,0,0,1.274-6.943q0-6.021-4.131-12.568a9.468,9.468,0,0,1-1.538-3.6,5.03,5.03,0,0,1,1.978-3.6,26.363,26.363,0,0,1,5.142-3.823,10.155,10.155,0,0,1,4.57-1.67,5.193,5.193,0,0,1,2.043.461,4.206,4.206,0,0,1,1.648,1.165q1.406,1.45,2.329,5.339a35.6,35.6,0,0,1,.923,8.24A43.365,43.365,0,0,1,202.7,60.521a35.461,35.461,0,0,1-11.514,13.887,26.823,26.823,0,0,1-15.754,5.12,27.275,27.275,0,0,1-9.668-1.8,21.21,21.21,0,0,1-7.778-4.834q-5.054-5.054-5.054-13.228A30.722,30.722,0,0,1,154.775,49.6a48.7,48.7,0,0,1,5.076-10.349,53.219,53.219,0,0,1,7.471-9.207,38.743,38.743,0,0,1,8.723-6.592,43.017,43.017,0,0,1,8.789-3.516,31.139,31.139,0,0,1,8.262-1.318q5.01,0,5.01,1.538a3.742,3.742,0,0,1-1.055,1.89,16.447,16.447,0,0,1-3.362,2.549,26.778,26.778,0,0,1-4.68,1.67,29.185,29.185,0,0,0-5.1,1.912A23.329,23.329,0,0,0,179.868,31.231Zm59.889-3.164-8.824,33.4q-.087.308-.351,1.626a22.19,22.19,0,0,1-1.8,5.361,17.9,17.9,0,0,1-2.241,3.34q1.274.088,2.856.088a33.557,33.557,0,0,0,6.372-.505,16.022,16.022,0,0,0,4.746-1.736,18.926,18.926,0,0,0,4.131-3.164,26.006,26.006,0,0,0,5.6-8.657A28.66,28.66,0,0,0,252.2,47.14a27.6,27.6,0,0,0-1.583-9.58,16.366,16.366,0,0,0-4.4-6.79A10.485,10.485,0,0,0,239.757,28.067Zm-29.7,43.726L220.518,36.5a19.831,19.831,0,0,1,2.329-5.757,6.078,6.078,0,0,1,1.978-1.626v-.176h-.615a21.009,21.009,0,0,0-5.317,1.45,23.006,23.006,0,0,1-6.108,1.538,1.791,1.791,0,0,1-1.208-.308,1.4,1.4,0,0,1-.33-1.055,9.067,9.067,0,0,1,.989-3.845A14.378,14.378,0,0,1,214.8,22.97a9.8,9.8,0,0,1,3.252-2.373,45.074,45.074,0,0,1,10.371-2.329,112.909,112.909,0,0,1,14.238-.835,34.344,34.344,0,0,1,14.063,2.593,18.832,18.832,0,0,1,8.811,7.69,23.789,23.789,0,0,1,3.01,12.3,39.9,39.9,0,0,1-2.878,14.612,37.187,37.187,0,0,1-7.625,12.327Q246.929,78.736,228.34,78.736a57.037,57.037,0,0,1-10.92-.967q-4.944-.967-6.526-2.373a2.778,2.778,0,0,1-1.011-2.329A7.378,7.378,0,0,1,210.059,71.793Z" transform="translate(821.5 91)" fill="#fff"/>
    <g id="Groupe_2" data-name="Groupe 2" transform="translate(54.911 54.533)">
      <path id="Tracé_4" data-name="Tracé 4" d="M1096.924,140.046c-40.083.534-41.823-5.237-16.783-33.177,1.121-1.251,2.679-2.963,4.328-4.754,29.439-31.987-24.061-17.267-24.061-17.267l-3.735,13.084s25.449-10.55,7.152,7.061-44,60.325,28.54,37S1096.924,140.046,1096.924,140.046Z" transform="translate(-16.435 6)" fill="#fff" stroke="#fff" stroke-width="1"/>
      <g id="Groupe_1" data-name="Groupe 1" transform="translate(1062.324 106.492)">
        <path id="heart-solid" d="M4.166,24.2,19.983,40.009a3.388,3.388,0,0,0,4.849,0L40.648,24.2a14.5,14.5,0,0,0,4.166-10.261V13.4c0-6.55-4.42-12.135-10.451-13.213A12,12,0,0,0,23.457,3.922l-1.05,1.125-1.05-1.125A12,12,0,0,0,10.451.183C4.42,1.26,0,6.845,0,13.4v.544A14.5,14.5,0,0,0,4.166,24.2Z" transform="matrix(0.559, 0.829, -0.829, 0.559, 34.016, 0)" fill="#fff"/>
        <path id="heart-solid-2" data-name="heart-solid" d="M2.528,14.682l9.6,9.591a2.056,2.056,0,0,0,2.942,0l9.6-9.591a8.8,8.8,0,0,0,2.528-6.225v-.33A7.985,7.985,0,0,0,20.847.111a7.282,7.282,0,0,0-6.616,2.268l-.637.682-.637-.682A7.282,7.282,0,0,0,6.34.111,7.985,7.985,0,0,0,0,8.127v.33A8.8,8.8,0,0,0,2.528,14.682Z" transform="matrix(0.559, 0.829, -0.829, 0.559, 33.536, 11.819)" fill="#de2e4b"/>
        <path id="heart-solid-3" data-name="heart-solid" d="M1.331,7.729l5.051,5.049a1.082,1.082,0,0,0,1.549,0l5.051-5.049a4.63,4.63,0,0,0,1.331-3.277V4.278A4.2,4.2,0,0,0,10.975.058,3.833,3.833,0,0,0,7.492,1.252l-.335.359-.335-.359A3.833,3.833,0,0,0,3.338.058,4.2,4.2,0,0,0,0,4.278v.174A4.63,4.63,0,0,0,1.331,7.729Z" transform="matrix(0.559, 0.829, -0.829, 0.559, 32.25, 20.452)" fill="#8a0d1e"/>
      </g>
    </g>
  </g>
</svg>
