<svg xmlns="http://www.w3.org/2000/svg" width="354.811" height="130.122" viewBox="0 0 354.811 130.122">
  <g id="Groupe_28" data-name="Groupe 28" transform="translate(-821.5 -52)">
    <text id="BLOOD_" data-name="BLOOD
" transform="translate(821.5 52)" fill="#fff" font-size="90" font-family="ForteMT, Forte"><tspan x="0" y="79">BLOOD</tspan></text>
    <g id="Groupe_2" data-name="Groupe 2" transform="translate(54.911 15.533)">
      <path id="Tracé_4" data-name="Tracé 4" d="M1096.924,140.046c-40.083.534-41.823-5.237-16.783-33.177,1.121-1.251,2.679-2.963,4.328-4.754,29.439-31.987-24.061-17.267-24.061-17.267l-3.735,13.084s25.449-10.55,7.152,7.061-44,60.325,28.54,37S1096.924,140.046,1096.924,140.046Z" transform="translate(-16.435 6)" fill="#fff" stroke="#fff" stroke-width="1"/>
      <g id="Groupe_1" data-name="Groupe 1" transform="translate(1062.324 106.492)">
        <path id="heart-solid" d="M4.166,24.2,19.983,40.009a3.388,3.388,0,0,0,4.849,0L40.648,24.2a14.5,14.5,0,0,0,4.166-10.261V13.4c0-6.55-4.42-12.135-10.451-13.213A12,12,0,0,0,23.457,3.922l-1.05,1.125-1.05-1.125A12,12,0,0,0,10.451.183C4.42,1.26,0,6.845,0,13.4v.544A14.5,14.5,0,0,0,4.166,24.2Z" transform="matrix(0.559, 0.829, -0.829, 0.559, 34.016, 0)" fill="#fff"/>
        <path id="heart-solid-2" data-name="heart-solid" d="M2.528,14.682l9.6,9.591a2.056,2.056,0,0,0,2.942,0l9.6-9.591a8.8,8.8,0,0,0,2.528-6.225v-.33A7.985,7.985,0,0,0,20.847.111a7.282,7.282,0,0,0-6.616,2.268l-.637.682-.637-.682A7.282,7.282,0,0,0,6.34.111,7.985,7.985,0,0,0,0,8.127v.33A8.8,8.8,0,0,0,2.528,14.682Z" transform="matrix(0.559, 0.829, -0.829, 0.559, 33.536, 11.819)" fill="#de2e4b"/>
        <path id="heart-solid-3" data-name="heart-solid" d="M1.331,7.729l5.051,5.049a1.082,1.082,0,0,0,1.549,0l5.051-5.049a4.63,4.63,0,0,0,1.331-3.277V4.278A4.2,4.2,0,0,0,10.975.058,3.833,3.833,0,0,0,7.492,1.252l-.335.359-.335-.359A3.833,3.833,0,0,0,3.338.058,4.2,4.2,0,0,0,0,4.278v.174A4.63,4.63,0,0,0,1.331,7.729Z" transform="matrix(0.559, 0.829, -0.829, 0.559, 32.25, 20.452)" fill="#8a0d1e"/>
      </g>
    </g>
  </g>
</svg>
