<svg xmlns="http://www.w3.org/2000/svg" width="85" height="68" viewBox="0 0 85 68">
  <path id="venus-mars-solid" d="M23.375,38.25A14.875,14.875,0,1,0,8.5,23.375,14.875,14.875,0,0,0,23.375,38.25ZM46.75,23.375a23.378,23.378,0,0,1-19.125,22.99V51h4.25a4.25,4.25,0,1,1,0,8.5h-4.25v4.25a4.25,4.25,0,1,1-8.5,0V59.5h-4.25a4.25,4.25,0,1,1,0-8.5h4.25V46.365A23.377,23.377,0,1,1,46.75,23.375ZM36.112,47.892a28.185,28.185,0,0,0,6.92-5.1,14.875,14.875,0,1,0,7.3-25.527,27.6,27.6,0,0,0-3.187-8A23.446,23.446,0,0,1,66.38,12.617l2.736-2.736L64.68,5.445A3.189,3.189,0,0,1,66.938,0H81.812A3.18,3.18,0,0,1,85,3.187V18.063a3.189,3.189,0,0,1-5.445,2.258l-4.436-4.436L72.383,18.62A23.372,23.372,0,0,1,36.112,47.892Z" fill="#de2e4b"/>
</svg>
