<svg id="Composant_1_1" data-name="Composant 1 – 1" xmlns="http://www.w3.org/2000/svg" width="371" height="134" viewBox="0 0 371 134">
  <path id="Rectangle_8" data-name="Rectangle 8" d="M124,0H247A124,124,0,0,1,371,124v10a0,0,0,0,1,0,0H0a0,0,0,0,1,0,0V124A124,124,0,0,1,124,0Z" fill="#fff"/>
  <path id="eye-solid_1_" data-name="eye-solid (1)" d="M47.994,32c-13.459,0-24.237,6.13-32.082,13.426A66,66,0,0,0,.437,67.264a5.3,5.3,0,0,0,0,4.1A66,66,0,0,0,15.912,93.2c7.846,7.3,18.623,13.426,32.082,13.426S72.231,100.5,80.077,93.2A66.5,66.5,0,0,0,95.568,71.362a5.3,5.3,0,0,0,0-4.1A66.333,66.333,0,0,0,80.077,45.426C72.231,38.13,61.454,32,47.994,32ZM24.008,69.313A23.987,23.987,0,1,1,47.994,93.3,23.987,23.987,0,0,1,24.008,69.313ZM47.994,58.652A10.671,10.671,0,0,1,37.334,69.313a10.814,10.814,0,0,1-3.381-.55A1.418,1.418,0,0,0,32,70a15.454,15.454,0,0,0,.533,3.448A15.995,15.995,0,1,0,48.677,53.322a1.413,1.413,0,0,0-1.233,1.949,10.815,10.815,0,0,1,.55,3.381Z" transform="translate(142.997 -2.313)" fill="#de2e4b"/>
</svg>
