<svg xmlns="http://www.w3.org/2000/svg" width="55.919" height="31.897" viewBox="0 0 55.919 31.897">
  <g id="Groupe_76" data-name="Groupe 76" transform="translate(-699.541 -447.386)">
    <path id="droplet-solid" d="M11.961,31.9A11.965,11.965,0,0,1,0,19.936C0,14.254,8.111,3.595,10.379.729A1.937,1.937,0,0,1,11.905,0h.112a1.937,1.937,0,0,1,1.526.729c2.268,2.866,10.379,13.525,10.379,19.207A11.965,11.965,0,0,1,11.961,31.9ZM5.981,20.932a1,1,0,0,0-1.994,0,6.974,6.974,0,0,0,6.977,6.977,1,1,0,1,0,0-1.994A4.983,4.983,0,0,1,5.981,20.932Z" transform="translate(715.539 447.386)" fill="#de2e4b"/>
    <path id="droplet-solid-2" data-name="droplet-solid" d="M8,21.331a8,8,0,0,1-8-8C0,9.532,5.424,2.4,6.941.487A1.3,1.3,0,0,1,7.961,0h.075A1.3,1.3,0,0,1,9.057.487C10.574,2.4,16,9.532,16,13.332A8,8,0,0,1,8,21.331ZM4,14a.667.667,0,0,0-1.333,0,4.664,4.664,0,0,0,4.666,4.666.667.667,0,1,0,0-1.333A3.332,3.332,0,0,1,4,14Z" transform="translate(699.541 452.669)" fill="#de2e4b"/>
    <path id="droplet-solid-3" data-name="droplet-solid" d="M8,21.331a8,8,0,0,1-8-8C0,9.532,5.424,2.4,6.941.487A1.3,1.3,0,0,1,7.961,0h.075A1.3,1.3,0,0,1,9.057.487C10.574,2.4,16,9.532,16,13.332A8,8,0,0,1,8,21.331ZM4,14a.667.667,0,0,0-1.333,0,4.664,4.664,0,0,0,4.666,4.666.667.667,0,1,0,0-1.333A3.332,3.332,0,0,1,4,14Z" transform="translate(739.462 452.669)" fill="#de2e4b"/>
  </g>
</svg>
