<svg xmlns="http://www.w3.org/2000/svg" width="182.236" height="301.277" viewBox="0 0 182.236 301.277">
  <g id="Groupe_35" data-name="Groupe 35" transform="translate(-107.224 -188.462)">
    <g id="Groupe_12" data-name="Groupe 12" transform="translate(125.824 253.515) rotate(13)">
      <g id="Groupe_11" data-name="Groupe 11" transform="translate(0 0)">
        <ellipse id="Ellipse_10" data-name="Ellipse 10" cx="12.403" cy="59.946" rx="12.403" ry="59.946" transform="translate(57.879 0)" fill="#f36d8f"/>
        <ellipse id="Ellipse_11" data-name="Ellipse 11" cx="12.403" cy="59.946" rx="12.403" ry="59.946" transform="translate(57.879 22.049)" fill="#f36d8f"/>
        <ellipse id="Ellipse_12" data-name="Ellipse 12" cx="11.714" cy="59.946" rx="11.714" ry="59.946" transform="translate(20.671 82.684) rotate(-90)" fill="#f36d8f"/>
        <ellipse id="Ellipse_13" data-name="Ellipse 13" cx="11.714" cy="59.946" rx="11.714" ry="59.946" transform="translate(0 82.684) rotate(-90)" fill="#f36d8f"/>
        <ellipse id="Ellipse_14" data-name="Ellipse 14" cx="12.08" cy="59.797" rx="12.08" ry="59.797" transform="translate(26.4 43.26) rotate(-45)" fill="#f36d8f"/>
        <ellipse id="Ellipse_16" data-name="Ellipse 16" cx="12.08" cy="59.797" rx="12.08" ry="59.797" transform="translate(13.226 31.58) rotate(-45)" fill="#f36d8f"/>
        <ellipse id="Ellipse_17" data-name="Ellipse 17" cx="12.08" cy="59.797" rx="12.08" ry="59.797" transform="translate(43.484 116.145) rotate(-135)" fill="#f36d8f"/>
        <ellipse id="Ellipse_18" data-name="Ellipse 18" cx="12.08" cy="59.797" rx="12.08" ry="59.797" transform="translate(30.31 127.825) rotate(-135)" fill="#f36d8f"/>
      </g>
      <circle id="Ellipse_15" data-name="Ellipse 15" cx="13.781" cy="13.781" r="13.781" transform="translate(56.501 57.879)" fill="#ffce0a"/>
    </g>
    <g id="Groupe_13" data-name="Groupe 13" transform="translate(189.145 388.782)">
      <circle id="Ellipse_3" data-name="Ellipse 3" cx="20.38" cy="20.38" r="20.38" transform="translate(7.953 11.93)" fill="#de2e4b"/>
      <circle id="Ellipse_2" data-name="Ellipse 2" cx="10.936" cy="10.936" r="10.936" transform="translate(36.784 7.953)" fill="#de2e4b"/>
      <circle id="Ellipse_4" data-name="Ellipse 4" cx="11.433" cy="11.433" r="11.433" transform="translate(38.772 25.848)" fill="#de2e4b"/>
      <ellipse id="Ellipse_5" data-name="Ellipse 5" cx="11.433" cy="10.936" rx="11.433" ry="10.936" transform="translate(27.836 38.772)" fill="#de2e4b"/>
      <circle id="Ellipse_6" data-name="Ellipse 6" cx="10.936" cy="10.936" r="10.936" transform="translate(10.936 37.778)" fill="#de2e4b"/>
      <circle id="Ellipse_7" data-name="Ellipse 7" cx="10.936" cy="10.936" r="10.936" transform="translate(0 23.86)" fill="#de2e4b"/>
      <circle id="Ellipse_8" data-name="Ellipse 8" cx="11.433" cy="11.433" r="11.433" transform="translate(4.971 6.959)" fill="#de2e4b"/>
      <circle id="Ellipse_9" data-name="Ellipse 9" cx="10.936" cy="10.936" r="10.936" transform="translate(19.883 0)" fill="#de2e4b"/>
      <circle id="Ellipse_1" data-name="Ellipse 1" cx="13.421" cy="13.421" r="13.421" transform="translate(17.895 18.889)" fill="#8a0d1e"/>
    </g>
    <g id="Groupe_15" data-name="Groupe 15" transform="matrix(0.616, 0.788, -0.788, 0.616, 211.367, 135.752)">
      <g id="Groupe_5" data-name="Groupe 5" transform="translate(47.115 0) rotate(22)">
        <ellipse id="Ellipse_19" data-name="Ellipse 19" cx="6.352" cy="31.443" rx="6.352" ry="31.443" transform="translate(56.533 0)" fill="#ceeff4"/>
        <ellipse id="Ellipse_20" data-name="Ellipse 20" cx="6.352" cy="31.443" rx="6.352" ry="31.443" transform="translate(56.533 62.886)" fill="#ceeff4"/>
        <ellipse id="Ellipse_21" data-name="Ellipse 21" cx="6.352" cy="31.443" rx="6.352" ry="31.443" transform="translate(62.886 69.238) rotate(-90)" fill="#ceeff4"/>
        <ellipse id="Ellipse_22" data-name="Ellipse 22" cx="6.352" cy="31.443" rx="6.352" ry="31.443" transform="translate(0 69.238) rotate(-90)" fill="#ceeff4"/>
        <ellipse id="Ellipse_23" data-name="Ellipse 23" cx="6.352" cy="31.443" rx="6.352" ry="31.443" transform="translate(13.882 22.865) rotate(-45)" fill="#ceeff4"/>
        <ellipse id="Ellipse_24" data-name="Ellipse 24" cx="6.352" cy="31.443" rx="6.352" ry="31.443" transform="translate(58.757 67.74) rotate(-45)" fill="#ceeff4"/>
        <ellipse id="Ellipse_25" data-name="Ellipse 25" cx="6.352" cy="31.443" rx="6.352" ry="31.443" transform="translate(22.865 112.207) rotate(-135)" fill="#ceeff4"/>
        <ellipse id="Ellipse_26" data-name="Ellipse 26" cx="6.352" cy="31.443" rx="6.352" ry="31.443" transform="translate(67.74 67.332) rotate(-135)" fill="#ceeff4"/>
      </g>
      <circle id="Ellipse_27" data-name="Ellipse 27" cx="8.781" cy="8.781" r="8.781" transform="translate(73.278 73.278)" fill="#f59fbd"/>
    </g>
    <g id="Groupe_22" data-name="Groupe 22" transform="translate(189.145 351.921) rotate(-17)">
      <circle id="Ellipse_3-2" data-name="Ellipse 3" cx="10.01" cy="10.01" r="10.01" transform="translate(4.004 5.72)" fill="#fff"/>
      <circle id="Ellipse_2-2" data-name="Ellipse 2" cx="5.434" cy="5.434" r="5.434" transform="translate(18.018 4.004)" fill="#fff"/>
      <circle id="Ellipse_4-2" data-name="Ellipse 4" cx="5.434" cy="5.434" r="5.434" transform="translate(19.162 12.87)" fill="#fff"/>
      <circle id="Ellipse_5-2" data-name="Ellipse 5" cx="5.434" cy="5.434" r="5.434" transform="translate(13.728 18.876)" fill="#fff"/>
      <circle id="Ellipse_6-2" data-name="Ellipse 6" cx="5.434" cy="5.434" r="5.434" transform="translate(5.148 18.59)" fill="#fff"/>
      <circle id="Ellipse_7-2" data-name="Ellipse 7" cx="5.434" cy="5.434" r="5.434" transform="translate(0 11.726)" fill="#fff"/>
      <circle id="Ellipse_8-2" data-name="Ellipse 8" cx="5.434" cy="5.434" r="5.434" transform="translate(2.574 3.718)" fill="#fff"/>
      <circle id="Ellipse_9-2" data-name="Ellipse 9" cx="5.434" cy="5.434" r="5.434" transform="translate(9.724)" fill="#fff"/>
      <circle id="Ellipse_1-2" data-name="Ellipse 1" cx="6.578" cy="6.578" r="6.578" transform="translate(8.58 9.152)" fill="#ffce0a"/>
    </g>
    <g id="Groupe_34" data-name="Groupe 34" transform="translate(219.963 266.349)">
      <circle id="Ellipse_3-3" data-name="Ellipse 3" cx="22.979" cy="22.979" r="22.979" transform="translate(8.967 13.451)" fill="#ffadbf"/>
      <circle id="Ellipse_2-3" data-name="Ellipse 2" cx="12.33" cy="12.33" r="12.33" transform="translate(41.474 8.967)" fill="#ffadbf"/>
      <circle id="Ellipse_4-3" data-name="Ellipse 4" cx="12.89" cy="12.89" r="12.89" transform="translate(43.715 29.144)" fill="#ffadbf"/>
      <ellipse id="Ellipse_5-3" data-name="Ellipse 5" cx="12.89" cy="12.33" rx="12.89" ry="12.33" transform="translate(31.385 43.715)" fill="#ffadbf"/>
      <circle id="Ellipse_6-3" data-name="Ellipse 6" cx="12.33" cy="12.33" r="12.33" transform="translate(12.33 42.594)" fill="#ffadbf"/>
      <circle id="Ellipse_7-3" data-name="Ellipse 7" cx="12.33" cy="12.33" r="12.33" transform="translate(0 26.902)" fill="#ffadbf"/>
      <circle id="Ellipse_8-3" data-name="Ellipse 8" cx="12.89" cy="12.89" r="12.89" transform="translate(5.605 7.846)" fill="#ffadbf"/>
      <circle id="Ellipse_9-3" data-name="Ellipse 9" cx="12.33" cy="12.33" r="12.33" transform="translate(22.418)" fill="#ffadbf"/>
      <path id="Tracé_7" data-name="Tracé 7" d="M15.132,0A15.132,15.132,0,1,1,0,15.132,15.132,15.132,0,0,1,15.132,0Z" transform="translate(20.176 21.297)" fill="#de2e4b"/>
    </g>
    <path id="droplet-solid" d="M11.961,31.9A11.965,11.965,0,0,1,0,19.936C0,14.254,8.111,3.595,10.379.729A1.937,1.937,0,0,1,11.905,0h.112a1.937,1.937,0,0,1,1.526.729c2.268,2.866,10.379,13.525,10.379,19.207A11.965,11.965,0,0,1,11.961,31.9ZM5.981,20.932a1,1,0,0,0-1.994,0,6.974,6.974,0,0,0,6.977,6.977,1,1,0,1,0,0-1.994A4.983,4.983,0,0,1,5.981,20.932Z" transform="translate(166.378 457.841)" fill="#8a0d1e"/>
  </g>
</svg>
