<svg id="Composant_2_1" data-name="Composant 2 – 1" xmlns="http://www.w3.org/2000/svg" width="603.664" height="501.025" viewBox="0 0 603.664 501.025">
  <g id="Groupe_27" data-name="Groupe 27" transform="translate(-752.95 -425.732)">
    <g id="Groupe_26" data-name="Groupe 26" transform="translate(852.034 882.163) rotate(-17)">
      <circle id="Ellipse_3" data-name="Ellipse 3" cx="10.01" cy="10.01" r="10.01" transform="translate(4.004 5.72)" fill="#fff"/>
      <circle id="Ellipse_2" data-name="Ellipse 2" cx="5.434" cy="5.434" r="5.434" transform="translate(18.018 4.004)" fill="#fff"/>
      <circle id="Ellipse_4" data-name="Ellipse 4" cx="5.434" cy="5.434" r="5.434" transform="translate(19.162 12.87)" fill="#fff"/>
      <circle id="Ellipse_5" data-name="Ellipse 5" cx="5.434" cy="5.434" r="5.434" transform="translate(13.728 18.876)" fill="#fff"/>
      <circle id="Ellipse_6" data-name="Ellipse 6" cx="5.434" cy="5.434" r="5.434" transform="translate(5.148 18.59)" fill="#fff"/>
      <circle id="Ellipse_7" data-name="Ellipse 7" cx="5.434" cy="5.434" r="5.434" transform="translate(0 11.726)" fill="#fff"/>
      <circle id="Ellipse_8" data-name="Ellipse 8" cx="5.434" cy="5.434" r="5.434" transform="translate(2.574 3.718)" fill="#fff"/>
      <circle id="Ellipse_9" data-name="Ellipse 9" cx="5.434" cy="5.434" r="5.434" transform="translate(9.724)" fill="#fff"/>
      <circle id="Ellipse_1" data-name="Ellipse 1" cx="6.578" cy="6.578" r="6.578" transform="translate(8.58 9.152)" fill="#ffce0a"/>
    </g>
    <g id="Groupe_25" data-name="Groupe 25" transform="translate(1191.039 543.096) rotate(-17)">
      <circle id="Ellipse_3-2" data-name="Ellipse 3" cx="10.01" cy="10.01" r="10.01" transform="translate(4.004 5.72)" fill="#fff"/>
      <circle id="Ellipse_2-2" data-name="Ellipse 2" cx="5.434" cy="5.434" r="5.434" transform="translate(18.018 4.004)" fill="#fff"/>
      <circle id="Ellipse_4-2" data-name="Ellipse 4" cx="5.434" cy="5.434" r="5.434" transform="translate(19.162 12.87)" fill="#fff"/>
      <circle id="Ellipse_5-2" data-name="Ellipse 5" cx="5.434" cy="5.434" r="5.434" transform="translate(13.728 18.876)" fill="#fff"/>
      <circle id="Ellipse_6-2" data-name="Ellipse 6" cx="5.434" cy="5.434" r="5.434" transform="translate(5.148 18.59)" fill="#fff"/>
      <circle id="Ellipse_7-2" data-name="Ellipse 7" cx="5.434" cy="5.434" r="5.434" transform="translate(0 11.726)" fill="#fff"/>
      <circle id="Ellipse_8-2" data-name="Ellipse 8" cx="5.434" cy="5.434" r="5.434" transform="translate(2.574 3.718)" fill="#fff"/>
      <circle id="Ellipse_9-2" data-name="Ellipse 9" cx="5.434" cy="5.434" r="5.434" transform="translate(9.724)" fill="#fff"/>
      <circle id="Ellipse_1-2" data-name="Ellipse 1" cx="6.578" cy="6.578" r="6.578" transform="translate(8.58 9.152)" fill="#ffce0a"/>
    </g>
    <g id="Groupe_16" data-name="Groupe 16" transform="translate(1169.196 725.143)">
      <circle id="Ellipse_3-3" data-name="Ellipse 3" cx="48.232" cy="48.232" r="48.232" transform="translate(19.293 27.561)" fill="#fff"/>
      <circle id="Ellipse_2-3" data-name="Ellipse 2" cx="26.183" cy="26.183" r="26.183" transform="translate(86.818 19.293)" fill="#fff"/>
      <circle id="Ellipse_4-3" data-name="Ellipse 4" cx="26.183" cy="26.183" r="26.183" transform="translate(92.331 62.013)" fill="#fff"/>
      <circle id="Ellipse_5-3" data-name="Ellipse 5" cx="26.183" cy="26.183" r="26.183" transform="translate(66.147 90.953)" fill="#fff"/>
      <circle id="Ellipse_6-3" data-name="Ellipse 6" cx="26.183" cy="26.183" r="26.183" transform="translate(24.805 89.575)" fill="#fff"/>
      <circle id="Ellipse_7-3" data-name="Ellipse 7" cx="26.183" cy="26.183" r="26.183" transform="translate(0 56.501)" fill="#fff"/>
      <circle id="Ellipse_8-3" data-name="Ellipse 8" cx="26.183" cy="26.183" r="26.183" transform="translate(12.403 17.915)" fill="#fff"/>
      <circle id="Ellipse_9-3" data-name="Ellipse 9" cx="26.183" cy="26.183" r="26.183" transform="translate(46.854)" fill="#fff"/>
      <circle id="Ellipse_1-3" data-name="Ellipse 1" cx="31.696" cy="31.696" r="31.696" transform="translate(41.342 44.098)" fill="#f36d8f"/>
    </g>
    <circle id="Ellipse_3-4" data-name="Ellipse 3" cx="48.232" cy="48.232" r="48.232" transform="translate(867.399 785.778)" fill="#fff"/>
    <g id="Groupe_10" data-name="Groupe 10" transform="translate(848.106 758.216)">
      <circle id="Ellipse_2-4" data-name="Ellipse 2" cx="26.183" cy="26.183" r="26.183" transform="translate(86.818 19.293)" fill="#de2e4b"/>
      <circle id="Ellipse_4-4" data-name="Ellipse 4" cx="26.183" cy="26.183" r="26.183" transform="translate(92.331 62.013)" fill="#de2e4b"/>
      <circle id="Ellipse_5-4" data-name="Ellipse 5" cx="26.183" cy="26.183" r="26.183" transform="translate(66.147 90.953)" fill="#de2e4b"/>
      <circle id="Ellipse_6-4" data-name="Ellipse 6" cx="26.183" cy="26.183" r="26.183" transform="translate(24.805 89.575)" fill="#de2e4b"/>
      <circle id="Ellipse_7-4" data-name="Ellipse 7" cx="26.183" cy="26.183" r="26.183" transform="translate(0 56.501)" fill="#de2e4b"/>
      <circle id="Ellipse_8-4" data-name="Ellipse 8" cx="26.183" cy="26.183" r="26.183" transform="translate(12.403 17.915)" fill="#de2e4b"/>
      <circle id="Ellipse_9-4" data-name="Ellipse 9" cx="26.183" cy="26.183" r="26.183" transform="translate(46.854)" fill="#de2e4b"/>
    </g>
    <circle id="Ellipse_1-4" data-name="Ellipse 1" cx="31.696" cy="31.696" r="31.696" transform="translate(889.448 802.315)" fill="#f36d8f"/>
    <g id="Groupe_7" data-name="Groupe 7" transform="translate(1021.743 754.082)">
      <ellipse id="Ellipse_10" data-name="Ellipse 10" cx="14.47" cy="69.593" rx="14.47" ry="69.593" transform="translate(67.525)" fill="#fff"/>
      <ellipse id="Ellipse_11" data-name="Ellipse 11" cx="14.47" cy="69.593" rx="14.47" ry="69.593" transform="translate(67.525 26.183)" fill="#fff"/>
      <ellipse id="Ellipse_12" data-name="Ellipse 12" cx="13.781" cy="70.282" rx="13.781" ry="70.282" transform="translate(23.427 96.465) rotate(-90)" fill="#fff"/>
      <ellipse id="Ellipse_13" data-name="Ellipse 13" cx="13.781" cy="69.593" rx="13.781" ry="69.593" transform="translate(0 96.465) rotate(-90)" fill="#fff"/>
      <ellipse id="Ellipse_14" data-name="Ellipse 14" cx="14.074" cy="69.666" rx="14.074" ry="69.666" transform="translate(30.758 50.4) rotate(-45)" fill="#fff"/>
      <ellipse id="Ellipse_16" data-name="Ellipse 16" cx="14.074" cy="69.666" rx="14.074" ry="69.666" transform="translate(15.409 36.792) rotate(-45)" fill="#fff"/>
      <ellipse id="Ellipse_17" data-name="Ellipse 17" cx="14.074" cy="69.666" rx="14.074" ry="69.666" transform="translate(50.661 135.315) rotate(-135)" fill="#fff"/>
      <ellipse id="Ellipse_18" data-name="Ellipse 18" cx="14.074" cy="69.666" rx="14.074" ry="69.666" transform="translate(35.312 148.922) rotate(-135)" fill="#fff"/>
      <circle id="Ellipse_15" data-name="Ellipse 15" cx="15.848" cy="15.848" r="15.848" transform="translate(66.147 67.525)" fill="#ffce0a"/>
    </g>
    <g id="Groupe_6" data-name="Groupe 6" transform="translate(885.314 425.732)">
      <g id="Groupe_5" data-name="Groupe 5" transform="translate(112.728 0) rotate(22)">
        <ellipse id="Ellipse_19" data-name="Ellipse 19" cx="15.198" cy="75.231" rx="15.198" ry="75.231" transform="translate(135.264 0)" fill="#de2e4b"/>
        <ellipse id="Ellipse_20" data-name="Ellipse 20" cx="15.198" cy="75.231" rx="15.198" ry="75.231" transform="translate(135.264 150.462)" fill="#de2e4b"/>
        <ellipse id="Ellipse_21" data-name="Ellipse 21" cx="15.198" cy="75.231" rx="15.198" ry="75.231" transform="translate(150.462 165.661) rotate(-90)" fill="#de2e4b"/>
        <ellipse id="Ellipse_22" data-name="Ellipse 22" cx="15.198" cy="75.231" rx="15.198" ry="75.231" transform="translate(0 165.661) rotate(-90)" fill="#de2e4b"/>
        <ellipse id="Ellipse_23" data-name="Ellipse 23" cx="15.198" cy="75.231" rx="15.198" ry="75.231" transform="translate(33.215 54.708) rotate(-45)" fill="#de2e4b"/>
        <ellipse id="Ellipse_24" data-name="Ellipse 24" cx="15.198" cy="75.231" rx="15.198" ry="75.231" transform="translate(140.583 162.077) rotate(-45)" fill="#de2e4b"/>
        <ellipse id="Ellipse_25" data-name="Ellipse 25" cx="15.198" cy="75.231" rx="15.198" ry="75.231" transform="translate(54.708 268.47) rotate(-135)" fill="#de2e4b"/>
        <ellipse id="Ellipse_26" data-name="Ellipse 26" cx="15.198" cy="75.231" rx="15.198" ry="75.231" transform="translate(162.077 161.101) rotate(-135)" fill="#de2e4b"/>
      </g>
      <circle id="Ellipse_27" data-name="Ellipse 27" cx="21.009" cy="21.009" r="21.009" transform="translate(175.328 175.328)" fill="#8a0d1e"/>
    </g>
    <g id="Groupe_8" data-name="Groupe 8" transform="translate(752.95 612.437)">
      <g id="Groupe_5-2" data-name="Groupe 5" transform="translate(63.489) rotate(22)">
        <ellipse id="Ellipse_19-2" data-name="Ellipse 19" cx="8.56" cy="42.371" rx="8.56" ry="42.371" transform="translate(76.181 0)" fill="#fff"/>
        <ellipse id="Ellipse_20-2" data-name="Ellipse 20" cx="8.56" cy="42.371" rx="8.56" ry="42.371" transform="translate(76.181 84.741)" fill="#fff"/>
        <ellipse id="Ellipse_21-2" data-name="Ellipse 21" cx="8.56" cy="42.371" rx="8.56" ry="42.371" transform="translate(84.741 93.301) rotate(-90)" fill="#fff"/>
        <ellipse id="Ellipse_22-2" data-name="Ellipse 22" cx="8.56" cy="42.371" rx="8.56" ry="42.371" transform="translate(0 93.301) rotate(-90)" fill="#fff"/>
        <ellipse id="Ellipse_23-2" data-name="Ellipse 23" cx="8.56" cy="42.371" rx="8.56" ry="42.371" transform="translate(18.707 30.812) rotate(-45)" fill="#fff"/>
        <ellipse id="Ellipse_24-2" data-name="Ellipse 24" cx="8.56" cy="42.371" rx="8.56" ry="42.371" transform="translate(79.177 91.282) rotate(-45)" fill="#fff"/>
        <ellipse id="Ellipse_25-2" data-name="Ellipse 25" cx="8.56" cy="42.371" rx="8.56" ry="42.371" transform="translate(30.812 151.203) rotate(-135)" fill="#fff"/>
        <ellipse id="Ellipse_26-2" data-name="Ellipse 26" cx="8.56" cy="42.371" rx="8.56" ry="42.371" transform="translate(91.282 90.733) rotate(-135)" fill="#fff"/>
      </g>
      <circle id="Ellipse_27-2" data-name="Ellipse 27" cx="11.833" cy="11.833" r="11.833" transform="translate(98.745 98.745)" fill="#de2e4b"/>
    </g>
    <g id="Groupe_9" data-name="Groupe 9" transform="translate(835.828 582.68) rotate(-17)">
      <circle id="Ellipse_3-5" data-name="Ellipse 3" cx="48.232" cy="48.232" r="48.232" transform="translate(19.293 27.561)" fill="#fff"/>
      <circle id="Ellipse_2-5" data-name="Ellipse 2" cx="26.183" cy="26.183" r="26.183" transform="translate(86.818 19.293)" fill="#fff"/>
      <circle id="Ellipse_4-5" data-name="Ellipse 4" cx="26.183" cy="26.183" r="26.183" transform="translate(92.331 62.013)" fill="#fff"/>
      <circle id="Ellipse_5-5" data-name="Ellipse 5" cx="26.183" cy="26.183" r="26.183" transform="translate(66.147 90.953)" fill="#fff"/>
      <circle id="Ellipse_6-5" data-name="Ellipse 6" cx="26.183" cy="26.183" r="26.183" transform="translate(24.805 89.575)" fill="#fff"/>
      <circle id="Ellipse_7-5" data-name="Ellipse 7" cx="26.183" cy="26.183" r="26.183" transform="translate(0 56.501)" fill="#fff"/>
      <circle id="Ellipse_8-5" data-name="Ellipse 8" cx="26.183" cy="26.183" r="26.183" transform="translate(12.403 17.915)" fill="#fff"/>
      <circle id="Ellipse_9-5" data-name="Ellipse 9" cx="26.183" cy="26.183" r="26.183" transform="translate(46.854)" fill="#fff"/>
      <circle id="Ellipse_1-5" data-name="Ellipse 1" cx="31.696" cy="31.696" r="31.696" transform="translate(41.342 44.098)" fill="#ffce0a"/>
    </g>
    <g id="Groupe_12" data-name="Groupe 12" transform="translate(970.606 669.809) rotate(13)">
      <g id="Groupe_11" data-name="Groupe 11" transform="translate(0 0)">
        <ellipse id="Ellipse_10-2" data-name="Ellipse 10" cx="12.403" cy="59.946" rx="12.403" ry="59.946" transform="translate(57.879 0)" fill="#f36d8f"/>
        <ellipse id="Ellipse_11-2" data-name="Ellipse 11" cx="12.403" cy="59.946" rx="12.403" ry="59.946" transform="translate(57.879 22.049)" fill="#f36d8f"/>
        <ellipse id="Ellipse_12-2" data-name="Ellipse 12" cx="11.714" cy="59.946" rx="11.714" ry="59.946" transform="translate(20.671 82.684) rotate(-90)" fill="#f36d8f"/>
        <ellipse id="Ellipse_13-2" data-name="Ellipse 13" cx="11.714" cy="59.946" rx="11.714" ry="59.946" transform="translate(0 82.684) rotate(-90)" fill="#f36d8f"/>
        <ellipse id="Ellipse_14-2" data-name="Ellipse 14" cx="12.08" cy="59.797" rx="12.08" ry="59.797" transform="translate(26.4 43.26) rotate(-45)" fill="#f36d8f"/>
        <ellipse id="Ellipse_16-2" data-name="Ellipse 16" cx="12.08" cy="59.797" rx="12.08" ry="59.797" transform="translate(13.226 31.58) rotate(-45)" fill="#f36d8f"/>
        <ellipse id="Ellipse_17-2" data-name="Ellipse 17" cx="12.08" cy="59.797" rx="12.08" ry="59.797" transform="translate(43.484 116.145) rotate(-135)" fill="#f36d8f"/>
        <ellipse id="Ellipse_18-2" data-name="Ellipse 18" cx="12.08" cy="59.797" rx="12.08" ry="59.797" transform="translate(30.31 127.825) rotate(-135)" fill="#f36d8f"/>
      </g>
      <circle id="Ellipse_15-2" data-name="Ellipse 15" cx="13.781" cy="13.781" r="13.781" transform="translate(56.501 57.879)" fill="#ffce0a"/>
    </g>
    <g id="Groupe_13" data-name="Groupe 13" transform="translate(1143.013 701.715)">
      <circle id="Ellipse_3-6" data-name="Ellipse 3" cx="28.25" cy="28.25" r="28.25" transform="translate(11.025 16.537)" fill="#fff"/>
      <circle id="Ellipse_2-6" data-name="Ellipse 2" cx="15.159" cy="15.159" r="15.159" transform="translate(50.989 11.025)" fill="#8a0d1e"/>
      <circle id="Ellipse_4-6" data-name="Ellipse 4" cx="15.848" cy="15.848" r="15.848" transform="translate(53.745 35.83)" fill="#8a0d1e"/>
      <ellipse id="Ellipse_5-6" data-name="Ellipse 5" cx="15.848" cy="15.159" rx="15.848" ry="15.159" transform="translate(38.586 53.745)" fill="#8a0d1e"/>
      <circle id="Ellipse_6-6" data-name="Ellipse 6" cx="15.159" cy="15.159" r="15.159" transform="translate(15.159 52.367)" fill="#8a0d1e"/>
      <circle id="Ellipse_7-6" data-name="Ellipse 7" cx="15.159" cy="15.159" r="15.159" transform="translate(0 33.074)" fill="#8a0d1e"/>
      <circle id="Ellipse_8-6" data-name="Ellipse 8" cx="15.848" cy="15.848" r="15.848" transform="translate(6.89 9.646)" fill="#8a0d1e"/>
      <circle id="Ellipse_9-6" data-name="Ellipse 9" cx="15.159" cy="15.159" r="15.159" transform="translate(27.561 0)" fill="#8a0d1e"/>
      <circle id="Ellipse_1-6" data-name="Ellipse 1" cx="18.604" cy="18.604" r="18.604" transform="translate(24.805 26.183)" fill="#ffce0a"/>
    </g>
    <g id="Groupe_14" data-name="Groupe 14" transform="translate(762.666 754.082)">
      <circle id="Ellipse_3-7" data-name="Ellipse 3" cx="28.25" cy="28.25" r="28.25" transform="translate(11.025 16.537)" fill="#fff"/>
      <circle id="Ellipse_2-7" data-name="Ellipse 2" cx="15.159" cy="15.159" r="15.159" transform="translate(50.989 11.025)" fill="#ceeff4"/>
      <circle id="Ellipse_4-7" data-name="Ellipse 4" cx="15.848" cy="15.848" r="15.848" transform="translate(53.745 35.83)" fill="#ceeff4"/>
      <ellipse id="Ellipse_5-7" data-name="Ellipse 5" cx="15.848" cy="15.159" rx="15.848" ry="15.159" transform="translate(38.586 53.745)" fill="#ceeff4"/>
      <circle id="Ellipse_6-7" data-name="Ellipse 6" cx="15.159" cy="15.159" r="15.159" transform="translate(15.159 52.367)" fill="#ceeff4"/>
      <circle id="Ellipse_7-7" data-name="Ellipse 7" cx="15.159" cy="15.159" r="15.159" transform="translate(0 33.074)" fill="#ceeff4"/>
      <circle id="Ellipse_8-7" data-name="Ellipse 8" cx="15.848" cy="15.848" r="15.848" transform="translate(6.89 9.646)" fill="#ceeff4"/>
      <circle id="Ellipse_9-7" data-name="Ellipse 9" cx="15.159" cy="15.159" r="15.159" transform="translate(27.561)" fill="#ceeff4"/>
      <circle id="Ellipse_1-7" data-name="Ellipse 1" cx="18.604" cy="18.604" r="18.604" transform="translate(24.805 26.183)" fill="#f36d8f"/>
    </g>
    <g id="Groupe_17" data-name="Groupe 17" transform="translate(1089.268 506.029)">
      <circle id="Ellipse_3-8" data-name="Ellipse 3" cx="28.25" cy="28.25" r="28.25" transform="translate(11.025 16.537)" fill="#fff"/>
      <circle id="Ellipse_2-8" data-name="Ellipse 2" cx="15.159" cy="15.159" r="15.159" transform="translate(50.989 11.025)" fill="#ceeff4"/>
      <circle id="Ellipse_4-8" data-name="Ellipse 4" cx="15.848" cy="15.848" r="15.848" transform="translate(53.745 35.83)" fill="#ceeff4"/>
      <ellipse id="Ellipse_5-8" data-name="Ellipse 5" cx="15.848" cy="15.159" rx="15.848" ry="15.159" transform="translate(38.586 53.745)" fill="#ceeff4"/>
      <circle id="Ellipse_6-8" data-name="Ellipse 6" cx="15.159" cy="15.159" r="15.159" transform="translate(15.159 52.367)" fill="#ceeff4"/>
      <circle id="Ellipse_7-8" data-name="Ellipse 7" cx="15.159" cy="15.159" r="15.159" transform="translate(0 33.074)" fill="#ceeff4"/>
      <circle id="Ellipse_8-8" data-name="Ellipse 8" cx="15.848" cy="15.848" r="15.848" transform="translate(6.89 9.646)" fill="#ceeff4"/>
      <circle id="Ellipse_9-8" data-name="Ellipse 9" cx="15.159" cy="15.159" r="15.159" transform="translate(27.561)" fill="#ceeff4"/>
      <circle id="Ellipse_1-8" data-name="Ellipse 1" cx="18.604" cy="18.604" r="18.604" transform="translate(24.805 26.183)" fill="#de2e4b"/>
    </g>
    <g id="Groupe_18" data-name="Groupe 18" transform="translate(1262.905 675.532)">
      <g id="Groupe_11-2" data-name="Groupe 11" transform="translate(0 0)">
        <ellipse id="Ellipse_10-3" data-name="Ellipse 10" cx="8.268" cy="39.964" rx="8.268" ry="39.964" transform="translate(38.586 0)" fill="#ceeff4"/>
        <ellipse id="Ellipse_11-3" data-name="Ellipse 11" cx="8.268" cy="39.964" rx="8.268" ry="39.964" transform="translate(38.586 15.159)" fill="#ceeff4"/>
        <ellipse id="Ellipse_12-3" data-name="Ellipse 12" cx="7.579" cy="39.964" rx="7.579" ry="39.964" transform="translate(13.781 55.123) rotate(-90)" fill="#ceeff4"/>
        <ellipse id="Ellipse_13-3" data-name="Ellipse 13" cx="7.579" cy="39.964" rx="7.579" ry="39.964" transform="translate(0 55.123) rotate(-90)" fill="#ceeff4"/>
        <ellipse id="Ellipse_14-3" data-name="Ellipse 14" cx="8.096" cy="40.074" rx="8.096" ry="40.074" transform="translate(17.693 28.953) rotate(-45)" fill="#ceeff4"/>
        <ellipse id="Ellipse_16-3" data-name="Ellipse 16" cx="8.096" cy="40.074" rx="8.096" ry="40.074" transform="translate(8.864 21.125) rotate(-45)" fill="#ceeff4"/>
        <ellipse id="Ellipse_17-3" data-name="Ellipse 17" cx="8.096" cy="40.074" rx="8.096" ry="40.074" transform="translate(29.142 77.799) rotate(-135)" fill="#ceeff4"/>
        <ellipse id="Ellipse_18-3" data-name="Ellipse 18" cx="8.096" cy="40.074" rx="8.096" ry="40.074" transform="translate(20.313 85.626) rotate(-135)" fill="#ceeff4"/>
      </g>
      <circle id="Ellipse_15-3" data-name="Ellipse 15" cx="9.646" cy="9.646" r="9.646" transform="translate(37.208 38.586)" fill="#f36d8f"/>
    </g>
    <g id="Groupe_15" data-name="Groupe 15" transform="matrix(0.616, 0.788, -0.788, 0.616, 1227.892, 534.316)">
      <g id="Groupe_5-3" data-name="Groupe 5" transform="translate(47.115 0) rotate(22)">
        <ellipse id="Ellipse_19-3" data-name="Ellipse 19" cx="6.352" cy="31.443" rx="6.352" ry="31.443" transform="translate(56.533 0)" fill="#fff"/>
        <ellipse id="Ellipse_20-3" data-name="Ellipse 20" cx="6.352" cy="31.443" rx="6.352" ry="31.443" transform="translate(56.533 62.886)" fill="#fff"/>
        <ellipse id="Ellipse_21-3" data-name="Ellipse 21" cx="6.352" cy="31.443" rx="6.352" ry="31.443" transform="translate(62.886 69.238) rotate(-90)" fill="#fff"/>
        <ellipse id="Ellipse_22-3" data-name="Ellipse 22" cx="6.352" cy="31.443" rx="6.352" ry="31.443" transform="translate(0 69.238) rotate(-90)" fill="#fff"/>
        <ellipse id="Ellipse_23-3" data-name="Ellipse 23" cx="6.352" cy="31.443" rx="6.352" ry="31.443" transform="translate(13.882 22.865) rotate(-45)" fill="#fff"/>
        <ellipse id="Ellipse_24-3" data-name="Ellipse 24" cx="6.352" cy="31.443" rx="6.352" ry="31.443" transform="translate(58.757 67.74) rotate(-45)" fill="#fff"/>
        <ellipse id="Ellipse_25-3" data-name="Ellipse 25" cx="6.352" cy="31.443" rx="6.352" ry="31.443" transform="translate(22.865 112.207) rotate(-135)" fill="#fff"/>
        <ellipse id="Ellipse_26-3" data-name="Ellipse 26" cx="6.352" cy="31.443" rx="6.352" ry="31.443" transform="translate(67.74 67.332) rotate(-135)" fill="#fff"/>
      </g>
      <circle id="Ellipse_27-3" data-name="Ellipse 27" cx="8.781" cy="8.781" r="8.781" transform="translate(73.278 73.278)" fill="#de2e4b"/>
    </g>
    <g id="Groupe_19" data-name="Groupe 19" transform="translate(988.927 677.405) rotate(-17)">
      <circle id="Ellipse_3-9" data-name="Ellipse 3" cx="10.01" cy="10.01" r="10.01" transform="translate(4.004 5.72)" fill="#fff"/>
      <circle id="Ellipse_2-9" data-name="Ellipse 2" cx="5.434" cy="5.434" r="5.434" transform="translate(18.018 4.004)" fill="#fff"/>
      <circle id="Ellipse_4-9" data-name="Ellipse 4" cx="5.434" cy="5.434" r="5.434" transform="translate(19.162 12.87)" fill="#fff"/>
      <circle id="Ellipse_5-9" data-name="Ellipse 5" cx="5.434" cy="5.434" r="5.434" transform="translate(13.728 18.876)" fill="#fff"/>
      <circle id="Ellipse_6-9" data-name="Ellipse 6" cx="5.434" cy="5.434" r="5.434" transform="translate(5.148 18.59)" fill="#fff"/>
      <circle id="Ellipse_7-9" data-name="Ellipse 7" cx="5.434" cy="5.434" r="5.434" transform="translate(0 11.726)" fill="#fff"/>
      <circle id="Ellipse_8-9" data-name="Ellipse 8" cx="5.434" cy="5.434" r="5.434" transform="translate(2.574 3.718)" fill="#fff"/>
      <circle id="Ellipse_9-9" data-name="Ellipse 9" cx="5.434" cy="5.434" r="5.434" transform="translate(9.724)" fill="#fff"/>
      <circle id="Ellipse_1-9" data-name="Ellipse 1" cx="6.578" cy="6.578" r="6.578" transform="translate(8.58 9.152)" fill="#ffce0a"/>
    </g>
    <g id="Groupe_20" data-name="Groupe 20" transform="translate(1234.223 691.293) rotate(-17)">
      <circle id="Ellipse_3-10" data-name="Ellipse 3" cx="10.01" cy="10.01" r="10.01" transform="translate(4.004 5.72)" fill="#fff"/>
      <circle id="Ellipse_2-10" data-name="Ellipse 2" cx="5.434" cy="5.434" r="5.434" transform="translate(18.018 4.004)" fill="#fff"/>
      <circle id="Ellipse_4-10" data-name="Ellipse 4" cx="5.434" cy="5.434" r="5.434" transform="translate(19.162 12.87)" fill="#fff"/>
      <circle id="Ellipse_5-10" data-name="Ellipse 5" cx="5.434" cy="5.434" r="5.434" transform="translate(13.728 18.876)" fill="#fff"/>
      <circle id="Ellipse_6-10" data-name="Ellipse 6" cx="5.434" cy="5.434" r="5.434" transform="translate(5.148 18.59)" fill="#fff"/>
      <circle id="Ellipse_7-10" data-name="Ellipse 7" cx="5.434" cy="5.434" r="5.434" transform="translate(0 11.726)" fill="#fff"/>
      <circle id="Ellipse_8-10" data-name="Ellipse 8" cx="5.434" cy="5.434" r="5.434" transform="translate(2.574 3.718)" fill="#fff"/>
      <circle id="Ellipse_9-10" data-name="Ellipse 9" cx="5.434" cy="5.434" r="5.434" transform="translate(9.724)" fill="#fff"/>
      <circle id="Ellipse_1-10" data-name="Ellipse 1" cx="6.578" cy="6.578" r="6.578" transform="translate(8.58 9.152)" fill="#ffce0a"/>
    </g>
    <g id="Groupe_21" data-name="Groupe 21" transform="translate(1169.197 863.551) rotate(-17)">
      <circle id="Ellipse_3-11" data-name="Ellipse 3" cx="10.01" cy="10.01" r="10.01" transform="translate(4.004 5.72)" fill="#fff"/>
      <circle id="Ellipse_2-11" data-name="Ellipse 2" cx="5.434" cy="5.434" r="5.434" transform="translate(18.018 4.004)" fill="#fff"/>
      <circle id="Ellipse_4-11" data-name="Ellipse 4" cx="5.434" cy="5.434" r="5.434" transform="translate(19.162 12.87)" fill="#fff"/>
      <circle id="Ellipse_5-11" data-name="Ellipse 5" cx="5.434" cy="5.434" r="5.434" transform="translate(13.728 18.876)" fill="#fff"/>
      <circle id="Ellipse_6-11" data-name="Ellipse 6" cx="5.434" cy="5.434" r="5.434" transform="translate(5.148 18.59)" fill="#fff"/>
      <circle id="Ellipse_7-11" data-name="Ellipse 7" cx="5.434" cy="5.434" r="5.434" transform="translate(0 11.726)" fill="#fff"/>
      <circle id="Ellipse_8-11" data-name="Ellipse 8" cx="5.434" cy="5.434" r="5.434" transform="translate(2.574 3.718)" fill="#fff"/>
      <circle id="Ellipse_9-11" data-name="Ellipse 9" cx="5.434" cy="5.434" r="5.434" transform="translate(9.724)" fill="#fff"/>
      <circle id="Ellipse_1-11" data-name="Ellipse 1" cx="6.578" cy="6.578" r="6.578" transform="translate(8.58 9.152)" fill="#ffce0a"/>
    </g>
    <g id="Groupe_22" data-name="Groupe 22" transform="translate(988.927 858.63) rotate(-17)">
      <circle id="Ellipse_3-12" data-name="Ellipse 3" cx="10.01" cy="10.01" r="10.01" transform="translate(4.004 5.72)" fill="#fff"/>
      <circle id="Ellipse_2-12" data-name="Ellipse 2" cx="5.434" cy="5.434" r="5.434" transform="translate(18.018 4.004)" fill="#fff"/>
      <circle id="Ellipse_4-12" data-name="Ellipse 4" cx="5.434" cy="5.434" r="5.434" transform="translate(19.162 12.87)" fill="#fff"/>
      <circle id="Ellipse_5-12" data-name="Ellipse 5" cx="5.434" cy="5.434" r="5.434" transform="translate(13.728 18.876)" fill="#fff"/>
      <circle id="Ellipse_6-12" data-name="Ellipse 6" cx="5.434" cy="5.434" r="5.434" transform="translate(5.148 18.59)" fill="#fff"/>
      <circle id="Ellipse_7-12" data-name="Ellipse 7" cx="5.434" cy="5.434" r="5.434" transform="translate(0 11.726)" fill="#fff"/>
      <circle id="Ellipse_8-12" data-name="Ellipse 8" cx="5.434" cy="5.434" r="5.434" transform="translate(2.574 3.718)" fill="#fff"/>
      <circle id="Ellipse_9-12" data-name="Ellipse 9" cx="5.434" cy="5.434" r="5.434" transform="translate(9.724)" fill="#fff"/>
      <circle id="Ellipse_1-12" data-name="Ellipse 1" cx="6.578" cy="6.578" r="6.578" transform="translate(8.58 9.152)" fill="#ffce0a"/>
    </g>
    <g id="Groupe_23" data-name="Groupe 23" transform="translate(982.591 561.647) rotate(-17)">
      <circle id="Ellipse_3-13" data-name="Ellipse 3" cx="10.01" cy="10.01" r="10.01" transform="translate(4.004 5.72)" fill="#fff"/>
      <circle id="Ellipse_2-13" data-name="Ellipse 2" cx="5.434" cy="5.434" r="5.434" transform="translate(18.018 4.004)" fill="#fff"/>
      <circle id="Ellipse_4-13" data-name="Ellipse 4" cx="5.434" cy="5.434" r="5.434" transform="translate(19.162 12.87)" fill="#fff"/>
      <circle id="Ellipse_5-13" data-name="Ellipse 5" cx="5.434" cy="5.434" r="5.434" transform="translate(13.728 18.876)" fill="#fff"/>
      <circle id="Ellipse_6-13" data-name="Ellipse 6" cx="5.434" cy="5.434" r="5.434" transform="translate(5.148 18.59)" fill="#fff"/>
      <circle id="Ellipse_7-13" data-name="Ellipse 7" cx="5.434" cy="5.434" r="5.434" transform="translate(0 11.726)" fill="#fff"/>
      <circle id="Ellipse_8-13" data-name="Ellipse 8" cx="5.434" cy="5.434" r="5.434" transform="translate(2.574 3.718)" fill="#fff"/>
      <circle id="Ellipse_9-13" data-name="Ellipse 9" cx="5.434" cy="5.434" r="5.434" transform="translate(9.724)" fill="#fff"/>
      <circle id="Ellipse_1-13" data-name="Ellipse 1" cx="6.578" cy="6.578" r="6.578" transform="translate(8.58 9.152)" fill="#ffce0a"/>
    </g>
    <g id="Groupe_24" data-name="Groupe 24" transform="translate(915.425 710.495) rotate(-17)">
      <circle id="Ellipse_3-14" data-name="Ellipse 3" cx="10.01" cy="10.01" r="10.01" transform="translate(4.004 5.72)" fill="#fff"/>
      <circle id="Ellipse_2-14" data-name="Ellipse 2" cx="5.434" cy="5.434" r="5.434" transform="translate(18.018 4.004)" fill="#fff"/>
      <circle id="Ellipse_4-14" data-name="Ellipse 4" cx="5.434" cy="5.434" r="5.434" transform="translate(19.162 12.87)" fill="#fff"/>
      <circle id="Ellipse_5-14" data-name="Ellipse 5" cx="5.434" cy="5.434" r="5.434" transform="translate(13.728 18.876)" fill="#fff"/>
      <circle id="Ellipse_6-14" data-name="Ellipse 6" cx="5.434" cy="5.434" r="5.434" transform="translate(5.148 18.59)" fill="#fff"/>
      <circle id="Ellipse_7-14" data-name="Ellipse 7" cx="5.434" cy="5.434" r="5.434" transform="translate(0 11.726)" fill="#fff"/>
      <circle id="Ellipse_8-14" data-name="Ellipse 8" cx="5.434" cy="5.434" r="5.434" transform="translate(2.574 3.718)" fill="#fff"/>
      <circle id="Ellipse_9-14" data-name="Ellipse 9" cx="5.434" cy="5.434" r="5.434" transform="translate(9.724)" fill="#fff"/>
      <circle id="Ellipse_1-14" data-name="Ellipse 1" cx="6.578" cy="6.578" r="6.578" transform="translate(8.58 9.152)" fill="#ffce0a"/>
    </g>
  </g>
  <path id="droplet-solid" d="M17.959,47.891A17.964,17.964,0,0,1,0,29.932C0,21.4,12.178,5.4,15.583,1.094A2.909,2.909,0,0,1,17.875,0h.168a2.909,2.909,0,0,1,2.292,1.094c3.4,4.3,15.583,20.307,15.583,28.837A17.964,17.964,0,0,1,17.959,47.891ZM8.979,31.428a1.5,1.5,0,1,0-2.993,0A10.471,10.471,0,0,0,16.462,41.9a1.5,1.5,0,0,0,0-2.993A7.481,7.481,0,0,1,8.979,31.428Z" transform="translate(378.832 218.135)" fill="#8a0d1e"/>
  <path id="droplet-solid-2" data-name="droplet-solid" d="M11.961,31.9A11.965,11.965,0,0,1,0,19.936C0,14.254,8.111,3.595,10.379.729A1.937,1.937,0,0,1,11.905,0h.112a1.937,1.937,0,0,1,1.526.729c2.268,2.866,10.379,13.525,10.379,19.207A11.965,11.965,0,0,1,11.961,31.9ZM5.981,20.932a1,1,0,0,0-1.994,0,6.974,6.974,0,0,0,6.977,6.977,1,1,0,1,0,0-1.994A4.983,4.983,0,0,1,5.981,20.932Z" transform="translate(155.832 84.128)" fill="#8a0d1e"/>
  <path id="droplet-solid-3" data-name="droplet-solid" d="M11.961,31.9A11.965,11.965,0,0,1,0,19.936C0,14.254,8.111,3.595,10.379.729A1.937,1.937,0,0,1,11.905,0h.112a1.937,1.937,0,0,1,1.526.729c2.268,2.866,10.379,13.525,10.379,19.207A11.965,11.965,0,0,1,11.961,31.9ZM5.981,20.932a1,1,0,0,0-1.994,0,6.974,6.974,0,0,0,6.977,6.977,1,1,0,1,0,0-1.994A4.983,4.983,0,0,1,5.981,20.932Z" transform="translate(277.909 469.128)" fill="#8a0d1e"/>
</svg>
